<mxfile host="app.diagrams.net" modified="2021-11-11T18:54:42.723Z" agent="5.0 (Windows NT 10.0; Win64; x64) AppleWebKit/537.36 (KHTML, like Gecko) Chrome/95.0.4638.69 Safari/537.36 Edg/95.0.1020.44" etag="hJN6j8zE2bixbjItqpZl" version="15.7.3" type="github">
  <diagram name="Page-1" id="c9db0220-8083-56f3-ca83-edcdcd058819">
    <mxGraphModel dx="820" dy="482" grid="1" gridSize="10" guides="1" tooltips="1" connect="1" arrows="1" fold="1" page="1" pageScale="1.5" pageWidth="826" pageHeight="1169" background="#FFFFFF" math="0" shadow="0">
      <root>
        <mxCell id="0" style=";html=1;" />
        <mxCell id="1" style=";html=1;" parent="0" />
        <mxCell id="j6AXFMzYux9oAnsxbU0D-1" value="" style="perimeter=none;dashed=0;shape=rect;fillColor=#dae8fc;strokeColor=#6c8ebf;shadow=1;" vertex="1" parent="1">
          <mxGeometry x="50" y="40" width="200" height="990" as="geometry" />
        </mxCell>
        <mxCell id="j6AXFMzYux9oAnsxbU0D-2" value="Profil" style="perimeter=none;dashed=0;shape=mxgraph.gmdl.preview;verticalAlign=middle;align=left;labelPosition=right;fontSize=15;spacing=16;resizeWidth=1;strokeColor=none;fillColor=#747474;" vertex="1" parent="j6AXFMzYux9oAnsxbU0D-1">
          <mxGeometry width="17.77777777777778" height="12" relative="1" as="geometry">
            <mxPoint x="17" y="16" as="offset" />
          </mxGeometry>
        </mxCell>
        <mxCell id="j6AXFMzYux9oAnsxbU0D-3" value="Clubs" style="perimeter=none;dashed=0;shape=mxgraph.gmdl.share3;verticalAlign=middle;align=left;labelPosition=right;fontSize=15;spacing=16;resizeWidth=1;strokeColor=none;fillColor=#747474;" vertex="1" parent="j6AXFMzYux9oAnsxbU0D-1">
          <mxGeometry width="20" height="14" relative="1" as="geometry">
            <mxPoint x="16" y="57" as="offset" />
          </mxGeometry>
        </mxCell>
        <mxCell id="j6AXFMzYux9oAnsxbU0D-5" value="" style="shape=line;resizeWidth=1;perimeter=none;strokeColor=#eeeeee;" vertex="1" parent="j6AXFMzYux9oAnsxbU0D-1">
          <mxGeometry width="188.88888888888889" height="10" relative="1" as="geometry">
            <mxPoint y="126" as="offset" />
          </mxGeometry>
        </mxCell>
        <mxCell id="j6AXFMzYux9oAnsxbU0D-7" value="Download" style="perimeter=none;dashed=0;shape=mxgraph.gmdl.download;verticalAlign=middle;align=left;labelPosition=right;fontSize=15;spacing=16;resizeWidth=1;strokeColor=none;fillColor=#747474;" vertex="1" parent="j6AXFMzYux9oAnsxbU0D-1">
          <mxGeometry width="13.333333333333334" height="16" relative="1" as="geometry">
            <mxPoint x="17" y="250" as="offset" />
          </mxGeometry>
        </mxCell>
        <mxCell id="j6AXFMzYux9oAnsxbU0D-8" value="" style="shape=line;resizeWidth=1;perimeter=none;strokeColor=#eeeeee;" vertex="1" parent="j6AXFMzYux9oAnsxbU0D-1">
          <mxGeometry width="188.88888888888889" height="10" relative="1" as="geometry">
            <mxPoint y="220" as="offset" />
          </mxGeometry>
        </mxCell>
        <mxCell id="j6AXFMzYux9oAnsxbU0D-9" value="Remove" style="perimeter=none;dashed=0;shape=mxgraph.gmdl.remove;verticalAlign=middle;align=left;labelPosition=right;fontSize=15;spacing=16;resizeWidth=1;strokeColor=none;fillColor=#747474;" vertex="1" parent="j6AXFMzYux9oAnsxbU0D-1">
          <mxGeometry width="13.333333333333334" height="16" relative="1" as="geometry">
            <mxPoint x="17" y="300" as="offset" />
          </mxGeometry>
        </mxCell>
        <mxCell id="j6AXFMzYux9oAnsxbU0D-13" value="" style="shape=image;html=1;verticalAlign=top;verticalLabelPosition=bottom;labelBackgroundColor=#ffffff;imageAspect=0;aspect=fixed;image=https://cdn4.iconfinder.com/data/icons/facebook-ui-twotone/48/Paul-27-128.png" vertex="1" parent="j6AXFMzYux9oAnsxbU0D-1">
          <mxGeometry x="11.11111111111111" y="89.99999999999997" width="40.72727272727272" height="40.72727272727272" as="geometry" />
        </mxCell>
        <mxCell id="j6AXFMzYux9oAnsxbU0D-10" value="Calender" style="text;html=1;strokeColor=none;fillColor=none;align=center;verticalAlign=middle;whiteSpace=wrap;rounded=0;fontSize=15;" vertex="1" parent="j6AXFMzYux9oAnsxbU0D-1">
          <mxGeometry x="51.83555555555556" y="83.35999999999997" width="66.66666666666667" height="53.99999999999999" as="geometry" />
        </mxCell>
        <mxCell id="j6AXFMzYux9oAnsxbU0D-100" value="Membres" style="text;html=1;strokeColor=none;fillColor=none;align=center;verticalAlign=middle;whiteSpace=wrap;rounded=0;fontSize=15;" vertex="1" parent="j6AXFMzYux9oAnsxbU0D-1">
          <mxGeometry x="51.83555555555556" y="130.72999999999996" width="66.66666666666667" height="53.99999999999999" as="geometry" />
        </mxCell>
        <mxCell id="j6AXFMzYux9oAnsxbU0D-102" value="" style="verticalLabelPosition=bottom;sketch=0;html=1;fillColor=#282828;strokeColor=none;verticalAlign=top;pointerEvents=1;align=center;shape=mxgraph.cisco_safe.people_places_things_icons.icon2;fontSize=15;fontColor=#000000;" vertex="1" parent="j6AXFMzYux9oAnsxbU0D-1">
          <mxGeometry x="17.03" y="137.35999999999999" width="28.89" height="32.77" as="geometry" />
        </mxCell>
        <mxCell id="j6AXFMzYux9oAnsxbU0D-158" value="" style="verticalLabelPosition=bottom;html=1;verticalAlign=top;align=center;strokeColor=none;fillColor=#00BEF2;shape=mxgraph.azure.notification_hub;pointerEvents=1;fontSize=24;fontColor=#0000CC;" vertex="1" parent="j6AXFMzYux9oAnsxbU0D-1">
          <mxGeometry x="11.11" y="190" width="38.89" height="30" as="geometry" />
        </mxCell>
        <mxCell id="j6AXFMzYux9oAnsxbU0D-160" value="&lt;font color=&quot;#000000&quot; style=&quot;font-size: 18px;&quot;&gt;Requests&lt;/font&gt;" style="text;html=1;strokeColor=none;fillColor=none;align=center;verticalAlign=middle;whiteSpace=wrap;rounded=0;fontSize=18;fontColor=#0000CC;fontStyle=0" vertex="1" parent="j6AXFMzYux9oAnsxbU0D-1">
          <mxGeometry x="60" y="190.00000000000003" width="60" height="30" as="geometry" />
        </mxCell>
        <mxCell id="j6AXFMzYux9oAnsxbU0D-15" value="" style="shape=image;verticalLabelPosition=bottom;labelBackgroundColor=#ffffff;verticalAlign=top;aspect=fixed;imageAspect=0;image=data:image/png,iVBORw0KGgoAAAANSUhEUgAAASsAAAEeCAIAAABdcaT9AAAABGdBTUEAALGPC/xhBQAAACBjSFJNAAB6JgAAgIQAAPoAAACA6AAAdTAAAOpgAAA6mAAAF3CculE8AAAABmJLR0QA/wD/AP+gvaeTAAAAB3RJTUUH4QwUChI6uChj+QAAP0BJREFUeNrtnXd8G+eZ5593CiqJQgBsIiU2VVvdjizZ6qIkKsmmXZxi59I3ZbO3yW7altvN3vluU+422WzKJjnLcWInWdux0yw2SVS1JEtWsapVKZEUO0AQRBnMzPveH0NBIDpAEAOA7/fDDz+DwWDmfQf4zfOW53leRAgBCoWiEozaBaBQZjVUgRSKmlAFUihqQhVIoagJVSCFoiZUgRSKmlAFUihqQhVIoagJVSCFoiZUgRSKmlAFUihqQhVIoagJVSCFoiZUgRSKmlAFUihqQhVIoagJVSCFoiZUgRSKmlAFUihqQhVIoagJVSCFoiZUgRSKmlAFUihqQhVIoagJVSCFoiZUgRSKmlAFUihqQhVIoagJVSCFoiZUgRSKmlAFUihqQhVIoagJVSCFoiZUgRSKmlAFUihqQhVIoagJVSCFoiZUgRSKmlAFUihqQhVIoagJVWCh0n3r1jO7d7929KgkSWqXhZI5nNoFoKRHb29vZ0dHa2vbtatXlT0mk2nLli0tu1oeevhhhqGP1AIDEULULgMlOcPDw+1t7R3t7efPn493jNVq3bptW8uulhUrVlApFgpUgXmN0+ncv29fa2vbmdOnU/+m7HZ78/btLS07H1y6FCGkdiUoiaAKzEcmJib27d3X0d5+4sQJWZYzPk9lZeWOnTt27NixeMkStetEiQ1VYB7h8/kOHzrUuqf1tddeE0Uxi2euqanZsXPnjp075s+fr3YtKVOgClSfYDB4+PDhzvaOAwcOCIIwo9eqq6tr2dWyffv2uvp6tetNAaAKVBFJkl4/cWLPntYDXV1erzfHV29qatr19l3Nzc01tbVq34lZDVVgrsEYnzp5srOjs7Oz0+12q10cWLxkSUvLzubm7ZVVlWqXZTZCFZgjCCEXzp/fs2fP3s69IyMjahcnBsuWL2tpadm6bZvD4VC7LLMIqsAZ5/KlS52dna17WgcGBtQuS3IQQqtWr9q5c+eWrVvLysrULk7xQxU4U3TfurVnz57Ojs7u7m61y5IJDMOsWbNm+47tm7dsMZvNahenaKEKzDK9PT2dnZ17Xt1z/fp1tcuSHViWXbdu3Y6dOzZu2lRSUqJ2cYoNqsDsMDQ01N7W1tHeceHChVxeV5IkQgjHcTnwfeF5fsOGDc3bm9dv2GAwGHJZzSKGKnBaOJ3OfXv3tu5pPXv2bC7vpCzLkiSFu8swDMOybG6kqNVqN23a1Ly9+bH167Vabc5qXZRQBWaCx+PZt3dvR3vHiRMnMMY5u658jwTfWi6laDQaN23a1Lxj+9q1azUaTc7uQzFBFZgGPp/v4IGDba2tx44dy67XWGJSEV40DMNwHMeybA6kWFpaunXr1ubtzW9bs4bjaMhbGlAFJkcQhCOHD7e3tx88eCg4w15j4WCMlabmNL8j9h45kKLValWkSIMVU4QqMC6SJB0/dryttfXAgQO59BrDGCvdvKx/NbmUot1u39a8rXn79pUrV9IIqQRQBUaieI21t7fv7dw7Pj6ey+vOkPCiUXSYm+ZiZWVlc3Nz847tS5cuzcHlCg6qwEkIIefOnWtva+vs3DuaQ68xQojS1MzliE4IRYcsy+bgWjU1Nc3bm7fv2LFo0aLc1zRvoQqEy5cutbW1d7S359JrTF3hRZNLKdbV1TVvb97Z0tLQ0KB2vdVn9irwxo0b7W1tbW1tPXd6cnZRQojS1MwT4UWAEAr1FXNwuaampu07tu/YuXPu3LlqV101Zp0Ce3t62tra29vacuk1pghPQe0bkBI5luLixYsVq1hVVaV21XPNbFHgQP9AZ2dHa2vb5UuXcnldpalZKMKLRpEix3E5mFp4qD7w4Ud9Utn25c1fKp/7gNpVzxFFrkCn09nR3tHR3q6611ihkwMpPlwf+PLOtwAASiFoBJ+8uX7Ntxw1D6td9ZmlON0X3G531/79ra1tp06ezL3XWFEmsVaGjiRJQggpYzYzJ0WEQFcCOuh6a+/b/uHop7fv2LGteVuxRkgVlQ30+XxdXV0dbe2vvfZaLmWQmddYoZN1KYZsIDIBKgcA6O+F//bd5QDAsuyaNWt27Ny5ZeuWIouQKgYFKl5jrXtaDx85UoheY4WO4gs+fSkmUGAInufXrl3bsqtlw8aNxREhVcCtUEmSjh492tnesX//fr/fn7PrZkV4iqNWuLtWhOtWPE+uBB5eCcoT/lb09jSfIBhjjLEoijkIyxBF8dChQ4cOHdJotesfe2xny871GzYUdIRU4SlQ8Rpr3dO6f//+vPUaCxdY9P8ZIsHJU7xuuCCj/6dyi3ImxaAg7Nu3b9++fXq9fsOGDS1v31WgEVIFo0CM8dmzZzs7Otrb2l0uV86um4rzCrpHaFvtu5UhCR4TISkqQEJZhktxpiOk/H5/e3t7e3u70WjctHnzrl0thRUhVQAFvXTxUltra2dnZ/54jaGpqH2HckFMcSpqxBjHUyPGOBgMQk7CMrxe76t/+tOrf/qTyWTaum3bzp07CiJCKn8VeO3atY729rbWtt7e3pxdNLHXGMMwCKH8/1JzhvIAUm5ISIox1RhyS8iBFMfHx195+eVXXn7ZarVua27e2bIzn5dzyzsF9tzpaWtrbW9rv3HjRs4umthrTPmR5e1XmCcoU/Zw72bGs4q5lKLL5XrxhRdefOEFu92urCGVh8u55ZEC97y657lf/vLy5cs5u2Iq7prKoILa96aQUOYJlYGrBIeFS3GmwzJGRkaef+755597vrKy8r3ve+9HP/ax/BmzySMF7mzZWVNT09W1v2t/1+3bt2f0Wil6jYWe6/lMWuOcOUNpMqTilxeSoijNoBOf0WjcsHHD1q1bH1u/Pn/kB3mlQIZhli1ftmz5sr/64hdv3rzZtX9/1/6uixcvZvES6bpr5rjFErpcxLBHgmnD6RBzkjBiI5e6xXL2/QdNJtOWLVs2bdmct3MVeaTAcBoaGhoaGj75qU8NDQ0d6DrQ1bX/5OsnM3Z0zjevsYh5C7UGVFMXdvhURPjGjENAluUMmiFKwqhtzc2rH1qd5zMTeV04ACgvL3/8A48//oHHJyYmDh863NW1/8jhIyl6wOSP11ihz17EmyckU8n6dQmAIAipBytWVFRs3rK5efv2fB78jCDfFRiipKSkZVdLy66WYDB44sSJrv1dBw8ccDqd0UfmifBCI/WFKLm06qhsJ50bzJjwsIyYEVI1NTVbtm7dtm1rHg51JqVgFBhCo9GsX79+/fr1+L//w5tvvtm1v6ura3/PnZ5c5hpLjPJDKbifwvRrHZobTDoQmhkRUqyvr9/19l2bN29evGSJ2rXPnMJTYAiGYVasWLFixYov/fWXzpw+/YMf/OD06dO5TGUdkxkNnCsUlOlTxRsm6+h0ulWrV3/0ox/dtHmT2hXNAgWswHBWrlr19O7dAPDmm2/+/JlnXjv6Wi59R0NQj5lwOI7LYpSmwWB4YOmDn/rkp4pDeCGKRIEhli1b9q/f/S4A9PX2Pv300/v37e/v71e7UJTMMRqNixcvbtm1K5Ta8NSpU3a73W63F0eobjFE6CbG4/H8/JlnWve0dnd3p9s5SdchRnEHUbvG+QLGOBAIpH78I03i37+rG8IidAMT9nHH7+Mdr9PrFCkWdKhu8SswhCiKL7344su/ffny5cspdhepAqfD9BUoCbVOy2+SflCv19sddrvdrtfr1a502swiBYazt3Pv888/f/bsGZ/Xl+AwqsDpkLoCy8rKVqxc+YGt1dWj/wjpKzCEwWBwOBw2u02n06ld+1SZpQoMce7cud1P7z527Jh7bCz6XarA6ZBUgQ6HY9Xq1S27WswmMwDwntfN3V+CaSgwhLHE6LA7bHZb/iewmNUKDAQCIyMjI8MjPp9veHi4tbX13Nmz4bP8VIHTIaYCGYZxOByPrH2keft2o8EY/lYWFRiipLTE4XDYbLb8dAqF2alAQRBGR0aHR4a9EzFWBfT6vJ0dHSdfP6mE5FMFZky4AhmGqaysXLtuXfP2Zq0mtl2aCQWGMJlNdrvdVmbjNbzaN2YKs0iBYlAcGR0ZGRnxjHtSOV6Speefe/7okSOpX4IqMBwlVcycOXPWPfro1m1bOTbJnZlRBU6CwGKx2Gy2srIyns8LKRb/z0UURafTOTIy4na7IZ2nDcdyy5cvS0uBlHD0ev0Pf/wjBuWTiwKBMdfYmGvsBrphtVrtdrvValX3oVm0CpRlWRGey+VKS3iUbKHRaPJLfuEQcDldLqcLMaisrMxms1mtVlWisYtTgYSQO3fujIyMiEGV3UQpeQ7BZHRk1O12OxyOurq63PvTF6cCEUL19fV1dXUej8fpdDqdzoA/jalhyiyB1/A2m81ms5lMJrViWYpTgQoIIZPJZDKZ6urqfD6f0+kcHR2NOf5JmVVodVpFeCUlJaoHkRWzAsMxGAwGg6GmpiYYDI6OjjqdznQHZiiFjl6vL7OVKcJTuyz3mS0KDKHRaKqqqqqqqiRJcrlcTqfT5XLNRI4gSp5gMBhsdpvNZstPB+5Zp8D7Nec4h8PhcDgwxm63WzGMkliEi2/OTowlRrvNXmYry3N37dmrwBAMw1itVqvVSgihIzeFTklpid1mLwiPUAWqwPtEj9xcuZK7BN6UzEFgNpuVab289f+MB1VgbJSRm3l1dWoXhJIIs8Vst9vLrGX55u2ZOlSBlAKmqampUFqb8chXpyEKZSoMy5SU5tEsQragNpCS17AcW2YtK7OVWa1Wj8dz8UI21xHJB6gCKfmLRqN/uBDWwZ0OxVw3SqHDMMWff5XaQIr6aLQam81WEpjn6la7KDmHKpCiMkseWGKxWABgovstFfKcq02Rm3hK/pNXftK5hyowETptwaSdzEOKvguXFeg9SsTqh1braOalTHmwkBcVyxlUgQkhxEGwIeUgztwt75z32BhUZ7epXYoCgD7gE3G3u5sFKGeQn4CHgC8FdSnrnqseea0ahJQwTBXHcQj6u7vVLk0BQBWYiP6eHmVDj1AJy2h43i3J47LsleV4WlTWeZ2Fy+hqAawsYw1LN+YeHla7UAUAVWAiRgYHQ9sMQjxCdp6z8xwG8MqyT8Y+jH0Yy1G2UdEhACjryBflmAQihEfIgJCFZfVMjGeN4POlf9ZZB1VgIlwjI6FtJsygMQClLFt673kfJMSPcQBjAWMBEwHjUNILZVOWZTQVtWuWCQwhPEI6hAwMMrFs0oeKLAhqF7kAoApMxLjbHdpOIBsNQhqWNYc1wERCgpgECbbaS+fVlg+5J8YnhOFxr3vCL0py6ITKOcM31K4xIEIQAIOAA8QjpEWgR4yBzcSIhz2IKHGhCkyE13N/hYm0xMEjxLPoIy2rm9c/GHlOwriDjMvrH3F5xsb9Lo/XHwj6AoIvEPT5hXGP1+MNeAOCX5ACoiRKckiW4fpMV6sIAIAgAgwCBIgBYABYBBwgFoEGIS1itFEJrhECnueCwQxz5yCEgkJAQ+dUE0IVmAgpbKnddH/0H3zX2zauWRi+B7EsW2q18LwFYF7iD2OMBT/2+4gsDQy7d//nkTt3nfhebxPDlDSLk4aGEASIQQAIZStc/EPvXrNiydy///bLopje6t+T9QWQRJEqMDFFOEIwQ6Slvy2PLoqUH6/hLHaU4no9DMPojVyZg7PYqmsq/u4Lb//bL7RU2ktZhFiEeIQ0YX865Y9htAzisye/t62sX//wglKj7m//YlfGrWMptdXCZzNUgSmT8s+wutLy/rc/POWjGi1nLoP0O1OI17AmK1fmqK+v/R9/855PP7FRp8tFQpT5DRUff/9jynZVueWJ967N7DwyVWAyqAITkYGDC8syX/7zHeF7JuU3jVEWxHKsycJZHatXzv/uP36wef1ixMzgmM3Cxsq//tT28D2Prm5a0FCRwalEIThz5SwOqAITEUx/PP2J9z6i191PmId4DWeyZqUwiOM4cxlnsb3vnWu/+48fXLq4Ziaq/OhDTV/8ZHP0/r/82DaOS3txL65gU5jlDKrARBhLS9M6fk6VZe3KxtBLxHKc2Tod6xcN4jWc1W6w2T7/0a1PfeXdjfMc2TozwzIf/8BjT8ZpcHIc8+T7Hkn3nBodHYZJAh0LTYTBaLz/gpAkWkLwV58Isx4Mw5rLYGaWsGR0Bkard2j1X/7MTrfH//zvjl94q4/gzJ3C5zdUfOG/btFoEv0e1ixv6Dh48e7AWOqnLTFbZqL6xQRVYCIMYcGjSX/dW9YtKjXee+QjxJmsaEbXZEWILTExeoOFd3/+I5sB4OCJt/YduTQ8OpHOOaB+rv0Tjz9ms6Zk7b/w0S1/9+2XU11zKgXjz/GcKivX5g9UgYkwphy+bdBrwsc/2VIz4nORPh2xHGexYSGAJ8Y3rlm4cc1CjOH1czePn77RP+Se8AZwLMOo0XDVFeZVS+dtXbc4LZ9Vq9m4+ZFFXceuZKv8er0+HzyBVIQqMBFm6/1BlMTjop/68MbQNmssZbQ5Xa+H0eoYjVb2TWC/l2HIIysbHlnZoLyFMR4cGR92TQCAXstbzQZ7auYuHo+/8+HjZ2/6/ckHOZkUjJtv1ntvUwUmoqy8PLSdQIEPLJyzuLFS2WZ0esagRuIThFhjKaMzYO84Fu4v/MQwTFW5parcksVLffbJjd/9WWfSw7gUhmFkSRZFkU/RUaEYoWOhibBX3J8Ei+dlrNPyn//IJmUb8Rq21KJigRHLsiYrZ7EhbgZ/0wvqKx9Z1Zj0MH1qK2YGg7N6zpAqMBH2ysrQdkwbiBD62udblK4UYtlsTf1NE2XGgjVZZ06HH/0v6yrLTYmPMZrNqZxKDM5qvxmqwERYbDbuXqYmHEuB79m5otJhBgBAiDVl4nc2czBa3aQOZ2ZM6O+/8M7EgyhmR0pzlaJEFUiJA0Koat5kGENMG2g2TU4YsiUmlJdZ1RitjrPYOKudMZSkV0KEgGEQywLDxJxX4DgmsZNq6NYlRpYzCbwoGvLxR5NX1NTV9dy4AXFsIMMiAGA0OkaXUp9HLRDHsxwPxlLAmMgSkSXAmCgRtEp8MGKUVRqAYRBiYhhzQgjGIEtElogsA8aEYCahe2rNggWplG2WB/JSBSahtr7+2L1tmRB2qjUwl+gBIabUlPoJPR7vrduDep12TrXNYMi50xbDIEajtEsxxkNDY3cHRlmGaWqsNuoTFgYhxLLAsgjur5ip0Wu9XiHe8SZrWUpFmt3pHakCkzAnbCFrjHG0AwejNyIm+cTXmGvi6PELx09eunq9L9Sgraosm99Ys7CpZsGC2rm15TmYm/b5Am9d633ras+1G73XbvQFApPjkCzLLFk0b90jDzzy8GKjMQuTmXzKS9vKmLZCKfGpC2tKRTdEOY5jE87++XyBE6cuH3ntwoVL3dE9yf4BZ/+A89DRNwGgtNTwwKJ5Dyyat3RpY3VVNnPdCkLwyls9Fy93X7h068at/pgdWlnG5y/eOn/x1tPPtq5a3vTYuqWrVy7g+SQ/Dy5+uqZSW6pVoF5plETMmz+f4zgl9WC0As322KEPhJALF291HTp74tQVUZzMs1Ji1JeW6k2lBn8g2D/gDO1X8Hh8x09ePn7yMgB85YuPP7x6Ubaq8Mtf7+3Ydyreu7Yyc0W5hWGQ2+0dn/C73ROvv/HW62+8ZTToHl374OYNKxobquN9VhM/+MhRW5ti8YoylWPqUAUmgeO4ufPn37x8GQDkqDEDRhPZd3K5xi9c6r54+TZCqKbasfKTTWVlJpvVZLOZwk0Kxnhg0HXz1t1r1/tu3Lp76/ZAuCAvX+nJogKvXL0T/tJWZp7fWN1YX9XUWFNfVxnRF5Uk2eXyjDrHR0bdw8PufV2njx678MCSuiWL5un1qTYsAaA+5UUjqAIpSWhcvFhRICaEEBLeWzOURA6BWq2m9Y8uW//ossTnZBimuspWXWV7bN1SAJBlufv24JW37ly93nvlas+Vq7ezVXifL3C3f7SpoXrRgrkL5tcsmj/XYk3UbOY41uGwOByWVE6ewJusLmUFcnk5i5MzZnXlU2Th0qWdL7+sbMuEcGEKzMqgBQCwLNvYUN3YUP12AABwOj3TPGEIXsP9/Cdf1cxMrDrPx+7CsRoNl7I7DjMzIZSFAlVgcpasWBHaljHmZr7VVFY2rfCFcHg1LIy1Io2kMhptLsK48pZZ/fhJkdqGBqNxsrUpz+7p4wh0utjiSXEuXkGjoQqkJAQxzIIlk8k/Zbo8YBjxcjctWbMmxTMgBs3yfiBVYEose2i1skEIoSJMDGLZsvJUW6HalCfuixWqwJRYse6x0PZ9T+LZnV4BAIyxvOpSDIlQoAqc1Q2A1GlcttJo0Hl9AQCQMFY6Lqnrj8gSkWTWYEXaUsTrRsYmLl65KotCwxxLrU0dl26ZMOdvDY+O+43GkuWL5hv1HBEmsH8MCE41tT4AE8snZl46y8fr9TlN55GHUAWmBMMwDy6uP/HGZQCQ0hmMIUGBIF5Tu5ovb0AMNzg4+M/f+KfW1j2hgIAVK1b881f+YnG1UfYMpn7azCvCadmyhpc6j//f7/9w+N4at3q9/qMf+/iXv/wVnudl92Cw/6LkvM3qjUmNPIr1FFqxfn3q5aEKpK3QRBAsEzkIBAPAqretCu1XRMgkW8RSnhhnSqtLHnpcU7lAkd+73/1nr776J0V+CKFNmzcvWrz4L772P86OaHXzt7DGbLqDRoAYjq9erl3y9u//uu33rR1PPPmRLVu2Km/5/f7/+PGPPvmJj8myzJor9Iu2GJe9U/b5SbLYWZMpUj+cRlNvIXX4dh3qq+TH9UySM1AFUhsYGyKLYs9J0dkju51ElhiNfmnT/e6NlMKsIPb7kNasX7wltOdrX/vK3b6+0MtvfvPbH/zQhwDA5XJ96pMff+75X+vnbxb7L4uDF7NeHUZbom1Yj7QlZ06f7u3p+c1vXlD2P/XU//zZT3+ibB88eHD37qc//ek/BwCmxG5c8Wee13/Nm21pBf431JZV+G8p2ybjRIXeeEuwjctxZWZILZdMEUNtYGzEvjPSWJ887iKSCIRgwWdG3vqaSRuVSlg39k1oqu77dt6+fbtr//7QS7PZrMgPAKxW68aNm1pb9wAgvmoJX5G0H5XeYCzDabVNm5C2BACe+fnuJ558MvTWhz/04fAjn9m9+/6njFa+bJ7sS5T/l4sKawhfs032TSAENZrxuB/nuVk+GQhUgbEhWHL1AMFEnJLG66GldcqGTAgmJEFsDhBCsByesv70G2+Ev+/z+c6cOTPl5enTyjZfuYTRJcpxRNJMLsZVPoD4SSv05rlzfb2TdlgUxY6O9vAj+/p6Q51DAEBaQ8QdiKCkdIpxQwitenDulJsgyxpG0jCxH1glKSdELmJoKzQGRJgAgkmUoXt4Wf2LrZNCkmQ5kS1CCDGscOc0X9GEOA0A8FM9M0VRfPe73lk9Z86CBQs4ljt8+NC73v2e0GdZSy0ecMc7Nw4KrCaNQXzWVBXaDgbFr371yz/96U98Pm9PT48Ytb5faPCFSEFx+FZaTdDqyqgHB8bAggZJQYgxd08VCFSBMSFSAAAgauZ9ToW1qtzcP+QGABFjhBDBcrwAedZkkdxOz7HndHUP81ULN23aVFs7t6dnSqDQ3b6+UM+woaEhtB9x8QWGcdIBkqj63K9IXV1dX1/vhQvnYx64afNmu90BhIjDNwPXjxLBy5kTZZqIcGfZ+MjCmIexKPboMVUgUAWmy9uW1v9+31kAkDHWajkiCEgfeywB8Rq+rFz2ewPXDvmvHuIs1b/94f989g/7Og8eu37jRkR6IpPJ9J73vDf0Ek8MxCsAFoOQplOONHKTn7NU2f7s5z534sRxJeA4BMuyCxfMf0fzlo+8a5vvfJs0eodIAqPRcVY7YhP9QjQcQ0LzoggeXT0/rYKVlmTNAb1woQqMT6zZsEcfanr1wJuSjAHAVKrHwQCjjz+axzCssRSMpUSWiOgx+J2f3TD3M49WCyK+6RS6R3y9I+OegGy1l7/vv7y/wl5GxADxu6WxO9JYX7xTElFQZkdSRxy+ggNOpLMjrXHd0qbWF5597fgJwTdh4FG5STvHoq8q5TgWIZZFA+cwy7EGA+ItqXj8hPcS62vtMVKnIQQAmMRoyur1ep6u70kVGBuGA4itwDkV1qf+5j0/+dXBW70jJUYdCQaTrysIgFgOsRzA5LgFj/FSm/Rgg0xkCbAMhEBv10QfgzSapEu+EFHMYG1t2TMEniEiBokYrML4fStsiHEAwyCGBYZFLJuZhx2HiFL9h5bXffz9MSfiFQXGeKPURA0gAFVgTJCiwDhuZ7WVZf/8xXe1HTw/OOIBIFjwp50sdDJlYPolI5hIYsb+qIjXZDF/NpElFmGzWf+ZJzY11MbxBUUIAORYwzDm1HLaFz1UgbFgeABA8dPRsgzz9s3LRUkGACwEcpauFyvzEPkRnIED/vnzKr719fcnOEbJ6IFjPcuoAhXofGAs2EQ2MATPsQBAggLkKmz3fr8rD0RIhADPJUs0qNhAEnknDQYDnYtXoDYwBpMTDCk39rDgZ/TGFA+eDlMUqGpsFJFEIkvJj4tTSLPFHAgE/H6/LMslJSW6FFYaLFaoAmMR8mVhmFTsGw7kRIGEhGYCCSHqxibigD/pMaGZUjlqLHRwcLD/bn/oZV1dXfWc6qQnLEpoKzQ2yq8nxfX3UjUI02OKg1iaExJZBwspKFCjgThTEVieUv7u292zdhVBqsDYII0RAJiUnb9SsQnTBE9RoJr9wBS7vsrMip+k0M4i4JnIWoLGwoIqMDaM0QbKbyi17hZJwSZMEyKGrVKkqgJTMoAshzRaAPBIKfXxAoGAijVSEarA2HCWGgAAhmF0KYWQEllOHEYwXQghYV7UGUzKZ7EkWEiuFsY46fPplFK7gVj90V1VoAqMDVNawWhLAIA1lKZoBme0IRopb/UUiINC0qsjftK5Z0zWB1NphUZUdgLwbcC3QYM2qlXNnEEVGA/ElS8CAGAYtiSlBTqx4J85YeBIA6uaApO3txFiS80AQAgMBFN1PZvi/4ABRAARwlcLLVaoAuPCldUxegsAMDoDSmVIhhAcFJIflhH5YgMJTlpHtsSsRFSMSsYATtX1btbm7aUKjA9CmjkrFc8YzmRBKSw0iQO+GSlJ2Ezg5A6VkudjIZBY/IzeqPScRczdFdNY3HvWruNJFZgIpsTOOxYCACCGNZcl7RCSoEBmYE1mJVdNxD5Vbkjivi6j1SktdkKgO2iJORMYD6pASmz46geUJIKI5bhURDgD4zExRlnVECCRpQTjvUijZU0WZfuuaPbK6XXh0GxNQE4VmAzEaOrWMbweABCvSSrCmWiI4hgKVKEVmsAAMlodZ7YqLfZR2TAspp1+YtaupDtLq50WiNdpGtYjlgdFhBZbvNwwMEMTg9G9PjVGYuKZd8ZQwpom5Tcu63oClgxOLtz+/eDBz0Ts9N5+ydt3OPc1zSVUgSnB6M3ahsdCzqKc1Z5gdBT7s2wGOaudLTWHyz73M/Ixu7iIYTlzGWucnHIYl3W3BFs6C2pMovMccx75iOy/g0oBVQMzZ/KPlPX3d20IDJ/NcWVzCVVgqjBGu7Zxo2IJgWE4cxlbao6ZzA8HA1mPGGR0Bq7MwRpNk1fMuQInW9f3WuCIYVljKVfmCD2JXJL+lmDLrFwlIy8CALIAqgBkANBP/iEjQCWMnPuHHFc2l8zSSZjMYIw23fwtws0jOOgFAEZnYLR6LASw4CfBKU6bOOBjDNlOxYcQYzAyeoPsm5hZD7hoMMaCAJOTDQYACJ+bIYQMiObB9Pt+92smXCcAyBL73aD8ak4rm1uoDUwPpDNpF2y7nwMXIUan58xlET3DrDdEw0qAWGNp4jSeWQcH/MrwK6MzIJYNl18QczcE+6BYmkHjU8FgMGjLVgPEPQHDLUznfAUGVWDaIE6jbXhMU/sQw93Ps4CmOnATLKfivjyNQuR07F5pgnrZ0nG4b+gwYQaCpiuB8gl5WhHudXV1ttVfBQASc4kKAvbF38tlZXMMbYVmCGerZ6210shN7O4lAQ8yVwSnLnKCAz5GWwzJF4gYVOKPnZxjPGA1c3oNkgXCeSQNmfYT3Ga3WawWsG6ds2tv/773EXCjkjBjGITypS+UVO9U+x7MIFSBmYMYji9fAOULlJdYeEVy9oTeJUGBSGKKUfb5DPZ7AUBC3DhrAUDu1KKNUoHX8KFc/fqqtUR0k2Egw1OO0T62KoMzFxC0FZo1NHMeiNiDfV61CzVdiDzZnHZxjiz/WhAsWLCAv7ditu/ukZheBt47+9M6a8FBFZg1uPJGxE9pdmLBPxNuorlEMYAEkJNzTPtkU6ivrw9PGRpPab47HWrfg5mFKjBrIIbVVC+O2FnYZpAQZQxmgjVLKJvpPefUzKmqqgrf4+vZM7nFAPD3/jjw330Ji34A8Hg8d+7ciTjP4OCgmukCsgFVYDbR1CyN2IMDvnRn58VhV9+PXvJf7UnrUzGRx713f/rKxOkrmX0c+73K1P8IV57Fu1RVXTVv3rzwPUF3tzg+uaAasgEz797fXCAEfH2HfD7fhQsXPOOR2Zx6e3q7u7uzWLbcQxWYTRiDhbfXTdlFSOKFoKMZP3beffDU7X/Z7b1wczqF8V25fesffjy278TonqOZfJ4Q2e8FAD9j8LFpRPolpnZubX19fcRO7519oW0UnniVAWSAidt7+/v74yWS6e/vxypFS2YFqsAsw89dEbEH+31p9QYtm1ZrKuzY57/91M/6fviicKc/9c8CAJHxxJmrd771i+5/+nFwcIQx6Msfb86gIiHrPcJVZuXOMCyzcNHC2tra6Ld8vV2TW/qo4flS8PX8KWLBw6kVhuiVgAsIVOjN6DzE89ovsdcVvofRGZTUKSkij3v7fvTixJnJ1qO2prJkxQJ9Y622xs7ZLKwxbD6AENkXkMe8Qv9wsG/Yd+2O98J17J90BjAuX1j9qXfx5ek70BAiOocA4yDSXNMvTdffhWGZiJy8JrOpqakpZnZ6IgevP2NW1i1GDkAR9wkDvgX6TQd6RmLP62i0mtWrVxdueCGdD8w+2toV/itd4XtwwMfojSjlVCisyTj36x+beOPKyB8O+a7cFHoHhN4pq+oyBj0AAMY4ECNrC2K50oeXlO1Ya1hSn9oFI8F+r2IAnVxlBu5mjY2NY2Njw0PDgMBsNldVVZWVxX0K+AZOTC4bHtEEnawqICPofW+azJvH3eORNWVQU2NT4coPqAJnAn7O4sCtE0SY4hoqT7g5iy2t85SsXlSyepE46PScvuK9eFPoHQwOOgHLAIB9kaF6nNWkqS7Xzas0PtBofKCB0U8jyxjGSt9VQryTt6f7aY7nbDabw+FobGxECCWVx/15CH2c32MJ+O90PvBnXzhz5kzAP8XXb86cORarJfOa5gFUgdkHMZx27qrAtSPhO4kYxII/6RK50fAVZWUt68pa1gEAkWRxdEyeCBAhCACIYxmDltHr2BI9o83abIHs9ShDoMN8VQZ+ZxUVFUrAe4ph776ezsn7Fie4AhnB3/3HoM8ZIT8AGBsbmzt3brYqrgpUgTOCpnap0H2KiFN+MfLEOKPRTcepGnGspsIGFTNYciKJyhygiDQu3pFBQpqKijTKJ030B52TQ7Uo3vJTCJABRq62AUQ2qic8E6IohhxrChE6FjojIJbXzotyaMRY9rjVLloSQiUc5qszWCLNYrWktRigt/fA5JYuoTkoAe+dzpjvjI2NqXOnsgRV4EyhmbscaSOf6ljwp7LsiVrIXo+SmDTA6F18er1Wheqq9JYB9N7Zq2yghPG9yADE2REzRZzL6YJChipwpkAsr2taF71f9rhzsNhgBhAxiO85D/TxcyF9A2gwGNIbFyGyr28y/j2xAgEBo+1nAzFcFMbcYwU9o0YVOINoqhYxpVH+XITIbpfqS3BGFgrL0vikMRnjbAE21fUewkl3HVz/4GksDAIka4IqlIJm/FT0bkmUPJ4CXnuQKnAmQUi/cH30biJLktul7hqAUwtEZLdTmQCUETfI12RwDl7D2+3pTV14ew5M3qcUUswgPWi9R2K+VdBdQarAmYWzztHUPBi9n4hBye3MCxESIrlHyT23rz5+roQyGVqsrqpON+uut2cy8igVBQIAz55G8nj0fqfTmcP7lWWoAmcc3fz1jD6GZ/M9EaraHMVYGhsNrQ06xtk8XCY5oHgNX1mVnvuoHHAKQ3sBUmuCAgAAKgWN53T0fp/XFwzmNnlc9qAKnHEQxxuW7gQU41YTMSi57tufHEMkURobCa3K5Gd0/Zp5mZ1qzpw56S694u09NHl/og0gBoj5XNKBJk5D1OUq1BFRqsBcwJor9Ys2xXyLyJI0NqKEoucS7JuQXKNEngzakBDXo12AM/o9aLSaysq04yeUeQhd1TuiFciCBsVsnmPQktaY6qQKpCRBU/Ogdt7K2O8RIk+MS66R3OThJUFBcg7LXk9oeg0Dc0c7X8w0Cr62tjb9dVeIr3cPwxvNDz4e3QRldWsZpgqiQo4C0jbGCJzvrejTjY2NFWiUIFVg7tAtWK+pXRrvXSKJ0tio5HaSGVqIlxAc8EuuEcntDJ+QxMB06xb4GWNmZzUYDeXlaUfQE1kk4mjpgr/E8jgAkKmeQlrTKo32URL1OJLYRoyAITHMHZbx+Pg4FCBUgTlFv2izdu7yBAeQoCC5ndLokDwxToLC9AdLiSzjgF/2jImjg7JnLGItXhHxt3QL/UzmCecbGhoyCA5CrMa66inrss9KQSfxAUx1EzLYN+rMGyNtoAwMGR8zPh00rot5zgKdk6Ce2blGt3Aj0lsCVw8nGAUlWCZ+r9I5RDyPOB6xHGI5YFmEGIjX5MOYEAwYE1kisgyyREQxQXi+lynp1TZmNvegUFFZYTJlmMDCtvIvAQDd0ZFRQFNDqYyVzUg6BOE2UIIJ9HmEghK/KN4JXU5XXV1dxnVRC6pAFdDOXc6ZK32XOvFE8oksIookOgsDQihMhwTjtKwlBjTCzxnWVGTgena/Fjrt9H/xOtMKCAKExWwhGRjOwJXWEvF+aLAs63yWJwASDRr7/X5BELTaaQRGqgFthaoDa64oWfMhXdOjiMto/IMQIsuhv7Tk52MMN3QPDPOV05EfIJg/f/70F38vmdfc+FFnxcMvGfQf4vACCALLPggAmtJaJAFIIAeNQnCDR/cUACQ1GIU4NU/zxKgMEQPBnvNCzzkSnLHllqZyS9Po46zTPEldfV11dXpeoCnfETw5d0rwmTPn/P4YoSQGg8Hni3G7rGXWxYsXJ7tAfkFboSqDeJ224WFt/WpxpFsavB7szzC3Zy6pqKyYKfkBhFwXhKDo9/sNRgPGOCI63lpmjVagVqdV5iQKa0n6QiprMYMY3tGgf3B7ZnPiucRmt4WWW5lRlLHNmNkNzSYzy0U2gKsqqziOi87mlOfk+/dNySvsdvv8+fNzk5tMp9NpddqysrLoZKEGoyF6xAUTXFVVZTRmOLGpFrQVSkmVOTVzIrLNzyhms3nx4sUIIVmeMqHCcqxGo9HpdD7v/Yaoo9xBCIlpMPMcqkBKcjiea2pqSpDzc4YwGAwAEJGvXrFyU2wggoaGBkGYGV+iGYYqkJIQBOXl5fPmzVMxH9mSJUucLqfH4/H5fAQTRZYhBWp1WovFwrKssr/goAqkJMJhdzQ1NalbBovVoqSfIYQIgqD0Qh12h8Vi0el0hTXyGQ1VYAGQbrLtxPD+dGII8ikfPEIolAqR1/C8poDThIagCiwAEJ/N1TOZwPTPQckahW3BKZRChyqQQlETqkAKRU2oAvOFHDvIM9x0wxooWYGOxKiPRMioJLoBzADZHHKJD8Nz9uXLAOPg8Ii7ry/eEu2UHEBtoJpgjF1B4YYsuRDCCLkQCtasyMF17YsXSSwr8TxTXWVfvcrusBf6rFrhQu+7OhBC/H6/1+tFQTHcALmb3oZNM7k+IIC2aZmkvx+UzhOoqqpavGSxo9yh9l2ZjdBWaNYQBOHC+Qtnz545d/acz58o3NY74WVZ9l+/9129Xs8SopNxgJ18FGKEnMveYTv+SyTNSOZCwVIrOqaE9hlkGQAYhrl86dJzv3wu4nhew+v1egDgeX7x4sXLV6xYsXyF2WJW7zYXG1SB0yIQCJw7e+7UqZOnTp66cOGClE726317973jne8AAIMshxQIACKv8Sx/t+mNF7JeWqwpGZmzMtzkMoTo7kUevPTiS9euXUvw8ePHjisbjY2NDz380EMPPbT6oYes1umG289yaJaKtMEYX7l85dix144fO3727Nm0VBfOypUr/+3fvw8ABGBAp8VTg+4sPRf01w8r27yjKgvlRszQgh0BfkpYXYkkm0URAAb6Bz7w+OPp/hgQQgsXLly7bu0ja9euWLFCo8nNQFJRQW1gqng8nteOHj148OBrR19zu7OwGPW5c+eGh4Yd5Q4EYJDxxNTpAXfNA/xYDzfSna3yj819JEJ+AKC/ZwA7OzszeBYTQq5cuXLlypVndj+j1WofWbt206aN6zdssNmy6cha3FAbmITh4eHOjo6u/V1nzpyJCBWdPp/93Oc+/MSHASDIMMPaSAPCyrLj+HMo6Ju+DfTbFg5XRaYw4gkpD0zG1H3kySdvd9/OSqUQQkuXLd20aXPLrpYM1pOYbVAFxsbtdu/t3Nve1nbq1KmZu0WNjY3PPPtzZXtIpxWjsj/o/B7r8eemqUDJYBuofwxHndwsSiWSBADXrl775Cc+kfXaIYRWrlrVsqulubnZbKaDN7GhCpwCIeTkyZMvvfhi1/6ujDt4afHzZ59taGwAgAmOc/MxOgWmwZuW4TczvwDDDSzcGWRjnLkyILCEAMAP/v3fX/jP7A/8hOB5vnl78wc+8MFly5fN3FUKFKrASQghHR0du59++upbV3N53SeeeOIzn/ssAMgIDehi53su7zurc3Vndv7Rxi3eWOuH6mRsCwYBAGP8vve8d3R0NAeVXbVq1Z9/5jNrHlmTg2sVCnRGHgDg2rVrH3niya9/9Ws5lh8AdHR2KA9BZWIw5jEjVcuwNpPlGSYql8eUH4SNwZx+443cyA8ATp8+/dnPfOYvv/CFoaGh3Fwx/6EKhL2dnU8+8eTFixezcjaMsRiLYBz6evvOnD6jfFYfZ6QHM8zQvEchTcexYGmVy14f8y2G3L9W657WiCKJcZBlOSstpiOHj7z33e9pbW31eDxZuecFDfuNb3xD7TKoSUdHx9e/9vVpdvlkWZZlWZGZJEk4TViO3bBxIwBwhHg5LuZqDjLLyTq73n0nxSIRXj9U/xhGsUVrkGU9xgAQDAa/8Y1/EgQhlXLKsixJkizLylqZCKGME4eKonj40GGdTk8IkSRJo9GomAlKXWa1DTx58uTf/+3fZbb2qmLrAoGAz+cTBEEUxYzXcN3buVcURQBA8c0gAEyU2nyOVBdFGKnfIDFx448M965y4MCB8KybKVZckiRBEPx+fyAQCAaDmU3SBIPBn/7kJxcvXuzt6T1z+szZs2cHBgayPt+T/8xeBfb29n75r/8mLeunPLAFQfD5fIFAYDqqC2diYuLwoUPKtiHhT3C0fIFoTO4/PV67xq/Rx3uXI0Rzr9itr+6ZTslDaszshgSDwZ/+x0+UPqHP67t54+apU6du374tRq/WVrzMUgUKgvClv/piiuseh8yd3+/P+JGfmNY9rcqGBmMufl+LIDRc+zZgEy2RF7A2jJkTzR8apcnyu93uY8eOZasK4XcpdSl6vd4f/+hHAWEye5QsyX29fadPn7579+4sGaWfpQr8zre/ff369cTHKD8ppa2VLXMXj6NHj4aGJUIKiYnE8UNzH41bZp15tHopJOS+J1pH50zMeRJC0pLi0NDQL559NlxvsiR33+q+fPnybGiUzkYFdu3v+u1Lv433rtLUDAQCivBy8yQOBoN7O/cq2/pkP7uA0TReuSLGGwwzXPeonHB0RIcxe69Ge/ZMqwmalJAUA4FAYqmfO3vu0OFDETvHXGMXL17MjV+Eisw6BY6Pj/+vp56K+RYhJBgMKk3NGbV4MWltnWyIsoRok13dba8TzDURO53z1gvJVuTV3zOwd/v6zr85DVebdMAYKzc2wRPtdy+/Mjg4GLFzwjNx5cqV3H8XuWTWKfD/fOc70RPQIe2p+MQ9e+ZM6CdokJKYQQIwXL2SaO6v1OUrXzJhTBKqFz7W2tbWluOOVsgkxhxoCQaDzz77rIwjKz7uHr9x/UYuy5ljZpcCDx8+/Mc//DFiJ8Y4aTMpB2CM2+6ZQb0sJ51owyw7UPuo8g2KRseoY37SSxjCTrtneqOgGRPSYbT+b3d3t7e1RX9keHj4bt9dVUqbA2aRAgOBwP9+6n9F7MQYC4KQJ8NuoY4ZSjYtoSDqDR7LAsSw7qqVJIXJ8VAT9PLly93d3SrWVHnqRd/21j2tfXf7oo/vvt2d4sB1wTGLFPj0//t/AwMD4XuUtXjyRH4AcOP6jVCeCH2yhigA6GVZXzZvQqoxAZtUf1xY9zI0+aEihJBoEWKMf/2rX5Ho5KkErl27pno7ZSaYLQrs7en5xbO/iNiZV/JTCGlDm3BiEAAQgFmUEIB4u48lxCQm+XWG+pYY45iNvdyjPAEjdt66eevokSPRBwsB4datW2oXOfvMFgV+59vfCQanZB9TnCHVLlck4QMkicdjSkWJJcT18ssDT/2z7HQaJYlPqNjQGMzrJ17PWTBEUpReQMTO3//u9+OeGG3O4aFhp9OpdpGzzKxQ4NEjRw4dmjLdpHgYq12uGAwNDr5x6g1lO8HEIEdIiSTJbvfoD7+PJzxD//Y9BGAOxnXmCreooWmPPEFxag/f4/P5Xv5t7Anb69evF5nPWvErEGP8ve9+L2JPhD3MK0LjMVz8iUGzKCKA4X//vjzuBoDxPX/0nzunxTje+E2oVykIQtf+/WpXMRIl9Cl8z8nXT968dTP6SEmUbt/OTj6bPKH4FfiHP/whwgEtn+UHAPv37QuVMOZ4jF6WdTL2X7zo/sPvJncRMvjNfwGMTaIUPSQTPrJ68MABny+9YIjcEAwGI/rkv33xpZi99KHBoWIaFy1yBQqC8OMf/ih8z0x7eE6fiFCJCEUpAzD3JHdfn8K1K64XXog5JBM+uzjTnmgZozhFhO/p7u4+depkzINv3riZb0NoGVPkCvzV88+HJ0RQnK3VLlRyQl216IhBkzIA89JLwuULEZ8a+Y8fyqOjJZLET10LKTSiMzY2Fsp7nYcogc7he155+ZWgGKPB4vP5imaOvpgV6PF4dj+9O3xPnrc/Q7x29LVQQyt8RJQjxChJsss18uMfRH8KT3iGvvuvAGAOe8qEe5nOUDBEFoloi7rd7n33HNYj6OntEYMF8DBNSjEr8NmfPzsxMRF6qeSPULtQKREMBvfunfzlacOiGczByQEYPB47afd4+x7f6dPhQzLGMKvSmq9N0BDRbdGOzk7PRIx0MljGt+8Uw5BM0SpwbGzsV88/H3qpuCOqXag0aAtzW1FUpJdlHcb+8+fdf/xd3I8RMvitKUMyobGcvr6+8+fPq12t5ES0RYOC0BbHg2doaMjr9apd3ulStAr8xbPP+v3+0MucRfplizNnzoR86PSSrAzAEIwH/+V/Q8KKBG9cc/761ywhJlGcMg24p7VQ7kCEGTx8+HBsFwICReAlU5wKdDqdv/n1b0IvlXQmahcqPQghba2TvmMcITYhyBLS9dJLwtXLST87+tMfj4+Olkhyadi4aGtrvjdBw+se3mCRZflPf/xjzCPH3eMul0vt8k6L4lTgM7t3RxhAtUuUCeEzB1qMnU7nt37wQxGSx0CI3onv/Z//q3xK2XPp0qVsLcySGyLaLCdPnowZMwEAt2/fLhTbHpMiVODY2Fh4EoroMe5C4eaNG1ev3s/h/W/f+7fRiYmrKSjwKqA/tLefOnkqtKctD4Ih0iW8LUoI+dMfYptBn9c3MjKidmEzpwgV+PxzzxWBAVQIxeyeO3tuz6uvAsC5FEZz38AIAL79rW8pjx6McXt7u9pVSZtQamCFN998s6cndsLiO3fuFMoodzTFpkCPxxPeA4z4FguOttY2QgjG+Fvf/KbS1nozBRt4GhAA3Lx581fP/wryLBgiLSKGZOLF9QsBITrHTKFQbAp88YUXwucAC2UKPh5DQ0NvnHrjxRdeCDVHewDGEorwLqDQj/FnP/vp8PCwYjwLkYghtARmsLe3t0AftUW1elkgENi5Y4d7bHK2WpKkQlcgADy2/rGzZ86GP1Y+HfA6sBxvSKaH5X6jvZ8we+OmTSdffz0/vbFTASGk19+vztKlSz/7uc/FPLKuvq66ulrt8qZNUa0j/7tXfheSHxR4DzDEkcNTAsY1hNRJwQRNF55gCFPgwQMH1K7BtFBmJkLrupw/f76n505t7dzoI/v6+iorK5k0V5hSnQIrbgJkWf7lL+7noZAkqZjMe4h5spz4Oysl2FqY7bF4RHyVe+KM64pBcaB/INWT5g3Fo8DOjo67d+/7yxeHAYymXk7uWjCvMGdf4qFkMQ+9PP/mmwMD/TGP7O0rvN5g8Sjw2Z8/G9ouVgMIAPU4+ZNlXgoqLSzCJ+gJIfHMoCRKEenw8p8iUeDxY8evXLkSelmsBpADqLmnrlKNptJoDP+rMBrLjcZyo3EjXyRfazjh3+mZ06eHhmOvg93X11dYZrBIvqrnnnsutF3EBrBWlkJDZwae17Bs+J+WZXUsq2PZco7VF90dCP9aMcadHZ0xDxODYmEtUl8MCuzu7g7PMFmsBhDCOoEIIS0bd4lchNDDBWUHUiT8m339xInxOEGSfX19BfQILgYFKp4fCrIsF9DdT5f6e0MsuvjyU1gORajAcDMoSdKBrgMxDxMCQgF5iha8AsfHx8NDV4rYADIAc+8Nw2iSKbCh4L/Y2IR/v4cPHw4tvhtBX29fqmdUm4L/ol55+ZWQH3ahe4EmZo4sa+5ZAB2XxJWijEEF/9XGItwM+ny+144cjXmYz+cbc42pXdiUKOyvSZbl3/zm16GXRWwAYWonMKkN5BBaiItqVjBE+Le8f/9+OU4148UT5huFrcCu/ftDbhAY4yI2gABQjycVqGWTr5QEAA+T4rwb4WbQ5XKdfuONmIe5x9zhzrR5S2Er8Pnn7udiKm4DiMLm2bXJDKDCQlS0I1LhLjKdHZ3xxt4KIqdoASvw0sVLZ8+eVbYxxgUaCJ8ilVjW37Np2mSdQIWKQvNRTp1wM9jX1xfujBHOyOhIIBBI47xqUMBfUngywoJLxJQu9feSDqKUbaCeQfYinZiJ8BTt7OiIcxyEuwrnJ4WqQKfT2XHvvkd8H0VJ3b0mqCa1TqDCWly0tyX8G3/rrbd6+3pjHjY4OJjn3ZNCVeDvf/e70J0tevkBQMO9mcAUm6AKDxZvVzDisXugqyv2YZjkeQKLglQgxvilF18KvSx6BdoxNoY6gak1QRVqUOr2svAIN24nXz8ZM7k9APT39+fzIHlBKvDo0aOh9n0R+2GHaAiLNkrqjxaOmUFatQs/c4SbQUmSjhw6HPMwMSjmc6KqglTgi//5Qmi76A0ghHUCtSyL0jFrCKHVefz4nz7h3/6hw4elOIGR+Twe8/8BCevoT1LumWMAAAAldEVYdGRhdGU6Y3JlYXRlADIwMTctMTItMjBUMTE6MTg6NTgrMDE6MDCLPExeAAAAJXRFWHRkYXRlOm1vZGlmeQAyMDE3LTEyLTIwVDExOjE4OjU4KzAxOjAw+mH04gAAABl0RVh0U29mdHdhcmUAQWRvYmUgSW1hZ2VSZWFkeXHJZTwAAAAASUVORK5CYII=;" vertex="1" parent="1">
          <mxGeometry x="600" y="40" width="189" height="180.78" as="geometry" />
        </mxCell>
        <mxCell id="j6AXFMzYux9oAnsxbU0D-21" value="" style="rounded=1;arcSize=9;align=left;spacingLeft=5;strokeColor=#4C9AFF;html=1;strokeWidth=2;fontSize=12" vertex="1" parent="1">
          <mxGeometry x="280" y="330" width="280" height="33" as="geometry" />
        </mxCell>
        <mxCell id="j6AXFMzYux9oAnsxbU0D-22" value="Name&lt;sup&gt;&lt;font color=&quot;#ff0000&quot;&gt;*&lt;/font&gt;&lt;/sup&gt;" style="fillColor=none;strokeColor=none;html=1;fontSize=11;fontStyle=0;align=left;fontColor=#596780;fontStyle=1;fontSize=11" vertex="1" parent="1">
          <mxGeometry x="280" y="60" width="240" height="20" as="geometry" />
        </mxCell>
        <mxCell id="j6AXFMzYux9oAnsxbU0D-23" value="" style="rounded=1;arcSize=9;align=left;spacingLeft=5;strokeColor=#4C9AFF;html=1;strokeWidth=2;fontSize=12" vertex="1" parent="1">
          <mxGeometry x="280" y="90" width="280" height="33" as="geometry" />
        </mxCell>
        <mxCell id="j6AXFMzYux9oAnsxbU0D-26" value="Prenom&lt;span style=&quot;color: rgb(255 , 0 , 0) ; font-size: 9.16667px&quot;&gt;*&lt;/span&gt;" style="fillColor=none;strokeColor=none;html=1;fontSize=11;fontStyle=0;align=left;fontColor=#596780;fontStyle=1;fontSize=11" vertex="1" parent="1">
          <mxGeometry x="280" y="140" width="240" height="20" as="geometry" />
        </mxCell>
        <mxCell id="j6AXFMzYux9oAnsxbU0D-27" value="" style="rounded=1;arcSize=9;align=left;spacingLeft=5;strokeColor=#4C9AFF;html=1;strokeWidth=2;fontSize=12" vertex="1" parent="1">
          <mxGeometry x="280" y="170" width="280" height="33" as="geometry" />
        </mxCell>
        <mxCell id="j6AXFMzYux9oAnsxbU0D-28" value="Email&lt;span style=&quot;color: rgb(255 , 0 , 0) ; font-size: 9.16667px&quot;&gt;*&lt;/span&gt;" style="fillColor=none;strokeColor=none;html=1;fontSize=11;fontStyle=0;align=left;fontColor=#596780;fontStyle=1;fontSize=11" vertex="1" parent="1">
          <mxGeometry x="280" y="220.78" width="240" height="20" as="geometry" />
        </mxCell>
        <mxCell id="j6AXFMzYux9oAnsxbU0D-29" value="" style="rounded=1;arcSize=9;align=left;spacingLeft=5;strokeColor=#4C9AFF;html=1;strokeWidth=2;fontSize=12" vertex="1" parent="1">
          <mxGeometry x="280" y="247" width="280" height="33" as="geometry" />
        </mxCell>
        <mxCell id="j6AXFMzYux9oAnsxbU0D-31" value="feliere&lt;span style=&quot;color: rgb(255 , 0 , 0) ; font-size: 9.16667px&quot;&gt;*&lt;/span&gt;" style="fillColor=none;strokeColor=none;html=1;fontSize=11;fontStyle=0;align=left;fontColor=#596780;fontStyle=1;fontSize=11" vertex="1" parent="1">
          <mxGeometry x="280" y="300" width="240" height="20" as="geometry" />
        </mxCell>
        <mxCell id="j6AXFMzYux9oAnsxbU0D-34" value="" style="shape=image;html=1;verticalAlign=top;verticalLabelPosition=bottom;labelBackgroundColor=#ffffff;imageAspect=0;aspect=fixed;image=https://cdn4.iconfinder.com/data/icons/6x16-free-application-icons/16/OK.png;fontSize=15;fontColor=#00FF00;" vertex="1" parent="1">
          <mxGeometry x="520" y="524" width="36" height="36" as="geometry" />
        </mxCell>
        <mxCell id="j6AXFMzYux9oAnsxbU0D-35" value="&lt;b&gt;&lt;font color=&quot;#0000ff&quot;&gt;Requests&lt;/font&gt;&lt;/b&gt;" style="text;html=1;strokeColor=none;fillColor=none;align=center;verticalAlign=middle;whiteSpace=wrap;rounded=0;fontSize=15;fontColor=#000000;" vertex="1" parent="1">
          <mxGeometry x="270" y="450" width="250" height="30" as="geometry" />
        </mxCell>
        <mxCell id="j6AXFMzYux9oAnsxbU0D-36" value="" style="shape=image;html=1;verticalAlign=top;verticalLabelPosition=bottom;labelBackgroundColor=#ffffff;imageAspect=0;aspect=fixed;image=https://cdn3.iconfinder.com/data/icons/musthave/128/Cancel.png;fontSize=15;fontColor=#0000FF;" vertex="1" parent="1">
          <mxGeometry x="570" y="524" width="36" height="36" as="geometry" />
        </mxCell>
        <mxCell id="j6AXFMzYux9oAnsxbU0D-37" value="&lt;font color=&quot;#000000&quot;&gt;le nom+ le prenom&lt;/font&gt;" style="text;html=1;strokeColor=none;fillColor=none;align=center;verticalAlign=middle;whiteSpace=wrap;rounded=0;fontSize=15;fontColor=#0000FF;" vertex="1" parent="1">
          <mxGeometry x="280" y="524" width="130" height="36" as="geometry" />
        </mxCell>
        <mxCell id="j6AXFMzYux9oAnsxbU0D-38" value="" style="shape=image;html=1;verticalAlign=top;verticalLabelPosition=bottom;labelBackgroundColor=#ffffff;imageAspect=0;aspect=fixed;image=https://cdn4.iconfinder.com/data/icons/6x16-free-application-icons/16/OK.png;fontSize=15;fontColor=#00FF00;" vertex="1" parent="1">
          <mxGeometry x="524" y="564" width="36" height="36" as="geometry" />
        </mxCell>
        <mxCell id="j6AXFMzYux9oAnsxbU0D-39" value="" style="shape=image;html=1;verticalAlign=top;verticalLabelPosition=bottom;labelBackgroundColor=#ffffff;imageAspect=0;aspect=fixed;image=https://cdn3.iconfinder.com/data/icons/musthave/128/Cancel.png;fontSize=15;fontColor=#0000FF;" vertex="1" parent="1">
          <mxGeometry x="570" y="564" width="36" height="36" as="geometry" />
        </mxCell>
        <mxCell id="j6AXFMzYux9oAnsxbU0D-40" value="le nom+ le prenom" style="text;html=1;strokeColor=none;fillColor=none;align=center;verticalAlign=middle;whiteSpace=wrap;rounded=0;fontSize=15;fontColor=#000000;" vertex="1" parent="1">
          <mxGeometry x="280" y="564" width="130" height="36" as="geometry" />
        </mxCell>
        <mxCell id="j6AXFMzYux9oAnsxbU0D-41" value="" style="strokeWidth=1;shadow=0;dashed=0;align=center;html=1;shape=mxgraph.mockup.forms.rrect;rSize=5;strokeColor=#999999;fillColor=#ffffff;fontSize=15;fontColor=#0000FF;" vertex="1" parent="1">
          <mxGeometry x="280" y="720" width="480" height="370" as="geometry" />
        </mxCell>
        <mxCell id="j6AXFMzYux9oAnsxbU0D-42" value="October 2021" style="strokeWidth=1;shadow=0;dashed=0;align=center;html=1;shape=mxgraph.mockup.forms.anchor;fontColor=#999999;fontSize=15;" vertex="1" parent="j6AXFMzYux9oAnsxbU0D-41">
          <mxGeometry x="90" y="16.91428571428571" width="300" height="42.285714285714285" as="geometry" />
        </mxCell>
        <mxCell id="j6AXFMzYux9oAnsxbU0D-43" value="&lt;" style="strokeWidth=1;shadow=0;dashed=0;align=center;html=1;shape=mxgraph.mockup.forms.rrect;rSize=4;strokeColor=#999999;fontColor=#008cff;fontSize=19;fontStyle=1;" vertex="1" parent="j6AXFMzYux9oAnsxbU0D-41">
          <mxGeometry x="24" y="16.91428571428571" width="75" height="42.285714285714285" as="geometry" />
        </mxCell>
        <mxCell id="j6AXFMzYux9oAnsxbU0D-44" value="&gt;" style="strokeWidth=1;shadow=0;dashed=0;align=center;html=1;shape=mxgraph.mockup.forms.rrect;rSize=4;strokeColor=#999999;fontColor=#008cff;fontSize=19;fontStyle=1;" vertex="1" parent="j6AXFMzYux9oAnsxbU0D-41">
          <mxGeometry x="381" y="16.91428571428571" width="75" height="42.285714285714285" as="geometry" />
        </mxCell>
        <mxCell id="j6AXFMzYux9oAnsxbU0D-45" value="Mo" style="strokeWidth=1;shadow=0;dashed=0;align=center;html=1;shape=mxgraph.mockup.forms.anchor;fontColor=#999999;fontSize=15;" vertex="1" parent="j6AXFMzYux9oAnsxbU0D-41">
          <mxGeometry x="30" y="59.19999999999999" width="60" height="42.285714285714285" as="geometry" />
        </mxCell>
        <mxCell id="j6AXFMzYux9oAnsxbU0D-46" value="Tu" style="strokeWidth=1;shadow=0;dashed=0;align=center;html=1;shape=mxgraph.mockup.forms.anchor;fontColor=#999999;fontSize=15;" vertex="1" parent="j6AXFMzYux9oAnsxbU0D-41">
          <mxGeometry x="90" y="59.19999999999999" width="60" height="42.285714285714285" as="geometry" />
        </mxCell>
        <mxCell id="j6AXFMzYux9oAnsxbU0D-47" value="We" style="strokeWidth=1;shadow=0;dashed=0;align=center;html=1;shape=mxgraph.mockup.forms.anchor;fontColor=#999999;fontSize=15;" vertex="1" parent="j6AXFMzYux9oAnsxbU0D-41">
          <mxGeometry x="150" y="59.19999999999999" width="60" height="42.285714285714285" as="geometry" />
        </mxCell>
        <mxCell id="j6AXFMzYux9oAnsxbU0D-48" value="Th" style="strokeWidth=1;shadow=0;dashed=0;align=center;html=1;shape=mxgraph.mockup.forms.anchor;fontColor=#999999;fontSize=15;" vertex="1" parent="j6AXFMzYux9oAnsxbU0D-41">
          <mxGeometry x="210" y="59.19999999999999" width="60" height="42.285714285714285" as="geometry" />
        </mxCell>
        <mxCell id="j6AXFMzYux9oAnsxbU0D-49" value="Fr" style="strokeWidth=1;shadow=0;dashed=0;align=center;html=1;shape=mxgraph.mockup.forms.anchor;fontColor=#999999;fontSize=15;" vertex="1" parent="j6AXFMzYux9oAnsxbU0D-41">
          <mxGeometry x="270" y="59.19999999999999" width="60" height="42.285714285714285" as="geometry" />
        </mxCell>
        <mxCell id="j6AXFMzYux9oAnsxbU0D-50" value="Sa" style="strokeWidth=1;shadow=0;dashed=0;align=center;html=1;shape=mxgraph.mockup.forms.anchor;fontColor=#999999;fontSize=15;" vertex="1" parent="j6AXFMzYux9oAnsxbU0D-41">
          <mxGeometry x="330" y="59.19999999999999" width="60" height="42.285714285714285" as="geometry" />
        </mxCell>
        <mxCell id="j6AXFMzYux9oAnsxbU0D-51" value="Su" style="strokeWidth=1;shadow=0;dashed=0;align=center;html=1;shape=mxgraph.mockup.forms.anchor;fontColor=#999999;fontSize=15;" vertex="1" parent="j6AXFMzYux9oAnsxbU0D-41">
          <mxGeometry x="390" y="59.19999999999999" width="60" height="42.285714285714285" as="geometry" />
        </mxCell>
        <mxCell id="j6AXFMzYux9oAnsxbU0D-52" value="1" style="strokeWidth=1;shadow=0;dashed=0;align=center;html=1;shape=mxgraph.mockup.forms.rrect;rSize=0;strokeColor=#999999;fontColor=#999999;fontSize=15;" vertex="1" parent="j6AXFMzYux9oAnsxbU0D-41">
          <mxGeometry x="30" y="101.48571428571427" width="60" height="42.285714285714285" as="geometry" />
        </mxCell>
        <mxCell id="j6AXFMzYux9oAnsxbU0D-53" value="2" style="strokeWidth=1;shadow=0;dashed=0;align=center;html=1;shape=mxgraph.mockup.forms.rrect;rSize=0;strokeColor=#999999;fontColor=#999999;fontSize=15;" vertex="1" parent="j6AXFMzYux9oAnsxbU0D-41">
          <mxGeometry x="90" y="101.48571428571427" width="60" height="42.285714285714285" as="geometry" />
        </mxCell>
        <mxCell id="j6AXFMzYux9oAnsxbU0D-54" value="3" style="strokeWidth=1;shadow=0;dashed=0;align=center;html=1;shape=mxgraph.mockup.forms.rrect;rSize=0;strokeColor=#999999;fontColor=#999999;fontSize=15;" vertex="1" parent="j6AXFMzYux9oAnsxbU0D-41">
          <mxGeometry x="150" y="101.48571428571427" width="60" height="42.285714285714285" as="geometry" />
        </mxCell>
        <mxCell id="j6AXFMzYux9oAnsxbU0D-55" value="4" style="strokeWidth=1;shadow=0;dashed=0;align=center;html=1;shape=mxgraph.mockup.forms.rrect;rSize=0;strokeColor=#999999;fontColor=#999999;fontSize=15;" vertex="1" parent="j6AXFMzYux9oAnsxbU0D-41">
          <mxGeometry x="210" y="101.48571428571427" width="60" height="42.285714285714285" as="geometry" />
        </mxCell>
        <mxCell id="j6AXFMzYux9oAnsxbU0D-56" value="5" style="strokeWidth=1;shadow=0;dashed=0;align=center;html=1;shape=mxgraph.mockup.forms.rrect;rSize=0;strokeColor=#999999;fontColor=#999999;fontSize=15;" vertex="1" parent="j6AXFMzYux9oAnsxbU0D-41">
          <mxGeometry x="270" y="101.48571428571427" width="60" height="42.285714285714285" as="geometry" />
        </mxCell>
        <mxCell id="j6AXFMzYux9oAnsxbU0D-57" value="6" style="strokeWidth=1;shadow=0;dashed=0;align=center;html=1;shape=mxgraph.mockup.forms.rrect;rSize=0;strokeColor=#999999;fontColor=#999999;fontSize=15;" vertex="1" parent="j6AXFMzYux9oAnsxbU0D-41">
          <mxGeometry x="330" y="101.48571428571427" width="60" height="42.285714285714285" as="geometry" />
        </mxCell>
        <mxCell id="j6AXFMzYux9oAnsxbU0D-58" value="7" style="strokeWidth=1;shadow=0;dashed=0;align=center;html=1;shape=mxgraph.mockup.forms.rrect;rSize=0;strokeColor=#999999;fontColor=#999999;fontSize=15;" vertex="1" parent="j6AXFMzYux9oAnsxbU0D-41">
          <mxGeometry x="390" y="101.48571428571427" width="60" height="42.285714285714285" as="geometry" />
        </mxCell>
        <mxCell id="j6AXFMzYux9oAnsxbU0D-59" value="8" style="strokeWidth=1;shadow=0;dashed=0;align=center;html=1;shape=mxgraph.mockup.forms.rrect;rSize=0;strokeColor=#999999;fontColor=#999999;fontSize=15;" vertex="1" parent="j6AXFMzYux9oAnsxbU0D-41">
          <mxGeometry x="30" y="143.77142857142854" width="60" height="42.285714285714285" as="geometry" />
        </mxCell>
        <mxCell id="j6AXFMzYux9oAnsxbU0D-60" value="9" style="strokeWidth=1;shadow=0;dashed=0;align=center;html=1;shape=mxgraph.mockup.forms.rrect;rSize=0;strokeColor=#999999;fontColor=#999999;fontSize=15;" vertex="1" parent="j6AXFMzYux9oAnsxbU0D-41">
          <mxGeometry x="90" y="143.77142857142854" width="60" height="42.285714285714285" as="geometry" />
        </mxCell>
        <mxCell id="j6AXFMzYux9oAnsxbU0D-61" value="10" style="strokeWidth=1;shadow=0;dashed=0;align=center;html=1;shape=mxgraph.mockup.forms.rrect;rSize=0;strokeColor=#999999;fontColor=#999999;fontSize=15;" vertex="1" parent="j6AXFMzYux9oAnsxbU0D-41">
          <mxGeometry x="150" y="143.77142857142854" width="60" height="42.285714285714285" as="geometry" />
        </mxCell>
        <mxCell id="j6AXFMzYux9oAnsxbU0D-62" value="11" style="strokeWidth=1;shadow=0;dashed=0;align=center;html=1;shape=mxgraph.mockup.forms.rrect;rSize=0;strokeColor=#999999;fontColor=#999999;fontSize=15;" vertex="1" parent="j6AXFMzYux9oAnsxbU0D-41">
          <mxGeometry x="210" y="143.77142857142854" width="60" height="42.285714285714285" as="geometry" />
        </mxCell>
        <mxCell id="j6AXFMzYux9oAnsxbU0D-63" value="12" style="strokeWidth=1;shadow=0;dashed=0;align=center;html=1;shape=mxgraph.mockup.forms.rrect;rSize=0;strokeColor=#999999;fontColor=#999999;fontSize=15;" vertex="1" parent="j6AXFMzYux9oAnsxbU0D-41">
          <mxGeometry x="270" y="143.77142857142854" width="60" height="42.285714285714285" as="geometry" />
        </mxCell>
        <mxCell id="j6AXFMzYux9oAnsxbU0D-64" value="13" style="strokeWidth=1;shadow=0;dashed=0;align=center;html=1;shape=mxgraph.mockup.forms.rrect;rSize=0;strokeColor=#999999;fontColor=#999999;fontSize=15;" vertex="1" parent="j6AXFMzYux9oAnsxbU0D-41">
          <mxGeometry x="330" y="143.77142857142854" width="60" height="42.285714285714285" as="geometry" />
        </mxCell>
        <mxCell id="j6AXFMzYux9oAnsxbU0D-65" value="14" style="strokeWidth=1;shadow=0;dashed=0;align=center;html=1;shape=mxgraph.mockup.forms.rrect;rSize=0;strokeColor=#999999;fontColor=#999999;fontSize=15;" vertex="1" parent="j6AXFMzYux9oAnsxbU0D-41">
          <mxGeometry x="390" y="143.77142857142854" width="60" height="42.285714285714285" as="geometry" />
        </mxCell>
        <mxCell id="j6AXFMzYux9oAnsxbU0D-66" value="15" style="strokeWidth=1;shadow=0;dashed=0;align=center;html=1;shape=mxgraph.mockup.forms.rrect;rSize=0;strokeColor=#999999;fontColor=#999999;fontSize=15;" vertex="1" parent="j6AXFMzYux9oAnsxbU0D-41">
          <mxGeometry x="30" y="186.05714285714285" width="60" height="42.285714285714285" as="geometry" />
        </mxCell>
        <mxCell id="j6AXFMzYux9oAnsxbU0D-67" value="16" style="strokeWidth=1;shadow=0;dashed=0;align=center;html=1;shape=mxgraph.mockup.forms.rrect;rSize=0;strokeColor=#999999;fontColor=#999999;fontSize=15;" vertex="1" parent="j6AXFMzYux9oAnsxbU0D-41">
          <mxGeometry x="90" y="186.05714285714285" width="60" height="42.285714285714285" as="geometry" />
        </mxCell>
        <mxCell id="j6AXFMzYux9oAnsxbU0D-68" value="17" style="strokeWidth=1;shadow=0;dashed=0;align=center;html=1;shape=mxgraph.mockup.forms.rrect;rSize=0;strokeColor=#999999;fontColor=#999999;fontSize=15;" vertex="1" parent="j6AXFMzYux9oAnsxbU0D-41">
          <mxGeometry x="150" y="186.05714285714285" width="60" height="42.285714285714285" as="geometry" />
        </mxCell>
        <mxCell id="j6AXFMzYux9oAnsxbU0D-69" value="18" style="strokeWidth=1;shadow=0;dashed=0;align=center;html=1;shape=mxgraph.mockup.forms.rrect;rSize=0;strokeColor=#999999;fontColor=#999999;fontSize=15;" vertex="1" parent="j6AXFMzYux9oAnsxbU0D-41">
          <mxGeometry x="210" y="186.05714285714285" width="60" height="42.285714285714285" as="geometry" />
        </mxCell>
        <mxCell id="j6AXFMzYux9oAnsxbU0D-70" value="19" style="strokeWidth=1;shadow=0;dashed=0;align=center;html=1;shape=mxgraph.mockup.forms.rrect;rSize=0;strokeColor=#999999;fontColor=#999999;fontSize=15;" vertex="1" parent="j6AXFMzYux9oAnsxbU0D-41">
          <mxGeometry x="270" y="186.05714285714285" width="60" height="42.285714285714285" as="geometry" />
        </mxCell>
        <mxCell id="j6AXFMzYux9oAnsxbU0D-71" value="20" style="strokeWidth=1;shadow=0;dashed=0;align=center;html=1;shape=mxgraph.mockup.forms.rrect;rSize=0;strokeColor=#999999;fontColor=#999999;fontSize=15;" vertex="1" parent="j6AXFMzYux9oAnsxbU0D-41">
          <mxGeometry x="330" y="186.05714285714285" width="60" height="42.285714285714285" as="geometry" />
        </mxCell>
        <mxCell id="j6AXFMzYux9oAnsxbU0D-72" value="21" style="strokeWidth=1;shadow=0;dashed=0;align=center;html=1;shape=mxgraph.mockup.forms.rrect;rSize=0;strokeColor=#999999;fontColor=#999999;fontSize=15;" vertex="1" parent="j6AXFMzYux9oAnsxbU0D-41">
          <mxGeometry x="390" y="186.05714285714285" width="60" height="42.285714285714285" as="geometry" />
        </mxCell>
        <mxCell id="j6AXFMzYux9oAnsxbU0D-73" value="22" style="strokeWidth=1;shadow=0;dashed=0;align=center;html=1;shape=mxgraph.mockup.forms.rrect;rSize=0;strokeColor=#999999;fontColor=#999999;fontSize=15;" vertex="1" parent="j6AXFMzYux9oAnsxbU0D-41">
          <mxGeometry x="30" y="228.3428571428571" width="60" height="42.285714285714285" as="geometry" />
        </mxCell>
        <mxCell id="j6AXFMzYux9oAnsxbU0D-74" value="23" style="strokeWidth=1;shadow=0;dashed=0;align=center;html=1;shape=mxgraph.mockup.forms.rrect;rSize=0;strokeColor=#999999;fontColor=#999999;fontSize=15;" vertex="1" parent="j6AXFMzYux9oAnsxbU0D-41">
          <mxGeometry x="90" y="228.3428571428571" width="60" height="42.285714285714285" as="geometry" />
        </mxCell>
        <mxCell id="j6AXFMzYux9oAnsxbU0D-75" value="25" style="strokeWidth=1;shadow=0;dashed=0;align=center;html=1;shape=mxgraph.mockup.forms.rrect;rSize=0;strokeColor=#999999;fontColor=#999999;fontSize=15;" vertex="1" parent="j6AXFMzYux9oAnsxbU0D-41">
          <mxGeometry x="210" y="228.3428571428571" width="60" height="42.285714285714285" as="geometry" />
        </mxCell>
        <mxCell id="j6AXFMzYux9oAnsxbU0D-76" value="26" style="strokeWidth=1;shadow=0;dashed=0;align=center;html=1;shape=mxgraph.mockup.forms.rrect;rSize=0;strokeColor=#999999;fontColor=#999999;fontSize=15;" vertex="1" parent="j6AXFMzYux9oAnsxbU0D-41">
          <mxGeometry x="270" y="228.3428571428571" width="60" height="42.285714285714285" as="geometry" />
        </mxCell>
        <mxCell id="j6AXFMzYux9oAnsxbU0D-77" value="27" style="strokeWidth=1;shadow=0;dashed=0;align=center;html=1;shape=mxgraph.mockup.forms.rrect;rSize=0;strokeColor=#999999;fontColor=#999999;fontSize=15;" vertex="1" parent="j6AXFMzYux9oAnsxbU0D-41">
          <mxGeometry x="330" y="228.3428571428571" width="60" height="42.285714285714285" as="geometry" />
        </mxCell>
        <mxCell id="j6AXFMzYux9oAnsxbU0D-78" value="28" style="strokeWidth=1;shadow=0;dashed=0;align=center;html=1;shape=mxgraph.mockup.forms.rrect;rSize=0;strokeColor=#999999;fontColor=#999999;fontSize=15;" vertex="1" parent="j6AXFMzYux9oAnsxbU0D-41">
          <mxGeometry x="390" y="228.3428571428571" width="60" height="42.285714285714285" as="geometry" />
        </mxCell>
        <mxCell id="j6AXFMzYux9oAnsxbU0D-79" value="29" style="strokeWidth=1;shadow=0;dashed=0;align=center;html=1;shape=mxgraph.mockup.forms.rrect;rSize=0;strokeColor=#999999;fontColor=#999999;fontSize=15;" vertex="1" parent="j6AXFMzYux9oAnsxbU0D-41">
          <mxGeometry x="30" y="270.6285714285714" width="60" height="42.285714285714285" as="geometry" />
        </mxCell>
        <mxCell id="j6AXFMzYux9oAnsxbU0D-80" value="30" style="strokeWidth=1;shadow=0;dashed=0;align=center;html=1;shape=mxgraph.mockup.forms.rrect;rSize=0;strokeColor=#999999;fontColor=#999999;fontSize=15;" vertex="1" parent="j6AXFMzYux9oAnsxbU0D-41">
          <mxGeometry x="90" y="270.6285714285714" width="60" height="42.285714285714285" as="geometry" />
        </mxCell>
        <mxCell id="j6AXFMzYux9oAnsxbU0D-81" value="31" style="strokeWidth=1;shadow=0;dashed=0;align=center;html=1;shape=mxgraph.mockup.forms.rrect;rSize=0;strokeColor=#999999;fontColor=#999999;fontSize=15;" vertex="1" parent="j6AXFMzYux9oAnsxbU0D-41">
          <mxGeometry x="150" y="270.6285714285714" width="60" height="42.285714285714285" as="geometry" />
        </mxCell>
        <mxCell id="j6AXFMzYux9oAnsxbU0D-82" value="1" style="strokeWidth=1;shadow=0;dashed=0;align=center;html=1;shape=mxgraph.mockup.forms.rrect;rSize=0;strokeColor=#999999;fontColor=#999999;fillColor=#ddeeff;fontSize=15;" vertex="1" parent="j6AXFMzYux9oAnsxbU0D-41">
          <mxGeometry x="210" y="270.6285714285714" width="60" height="42.285714285714285" as="geometry" />
        </mxCell>
        <mxCell id="j6AXFMzYux9oAnsxbU0D-83" value="2" style="strokeWidth=1;shadow=0;dashed=0;align=center;html=1;shape=mxgraph.mockup.forms.rrect;rSize=0;strokeColor=#999999;fontColor=#999999;fillColor=#ddeeff;fontSize=15;" vertex="1" parent="j6AXFMzYux9oAnsxbU0D-41">
          <mxGeometry x="270" y="270.6285714285714" width="60" height="42.285714285714285" as="geometry" />
        </mxCell>
        <mxCell id="j6AXFMzYux9oAnsxbU0D-84" value="3" style="strokeWidth=1;shadow=0;dashed=0;align=center;html=1;shape=mxgraph.mockup.forms.rrect;rSize=0;strokeColor=#999999;fontColor=#999999;fillColor=#ddeeff;fontSize=15;" vertex="1" parent="j6AXFMzYux9oAnsxbU0D-41">
          <mxGeometry x="330" y="270.6285714285714" width="60" height="42.285714285714285" as="geometry" />
        </mxCell>
        <mxCell id="j6AXFMzYux9oAnsxbU0D-85" value="4" style="strokeWidth=1;shadow=0;dashed=0;align=center;html=1;shape=mxgraph.mockup.forms.rrect;rSize=0;strokeColor=#999999;fontColor=#999999;fillColor=#ddeeff;fontSize=15;" vertex="1" parent="j6AXFMzYux9oAnsxbU0D-41">
          <mxGeometry x="390" y="270.6285714285714" width="60" height="42.285714285714285" as="geometry" />
        </mxCell>
        <mxCell id="j6AXFMzYux9oAnsxbU0D-86" value="5" style="strokeWidth=1;shadow=0;dashed=0;align=center;html=1;shape=mxgraph.mockup.forms.rrect;rSize=0;strokeColor=#999999;fontColor=#999999;fillColor=#ddeeff;fontSize=15;" vertex="1" parent="j6AXFMzYux9oAnsxbU0D-41">
          <mxGeometry x="30" y="312.9142857142857" width="60" height="42.285714285714285" as="geometry" />
        </mxCell>
        <mxCell id="j6AXFMzYux9oAnsxbU0D-87" value="6" style="strokeWidth=1;shadow=0;dashed=0;align=center;html=1;shape=mxgraph.mockup.forms.rrect;rSize=0;strokeColor=#999999;fontColor=#999999;fillColor=#ddeeff;fontSize=15;" vertex="1" parent="j6AXFMzYux9oAnsxbU0D-41">
          <mxGeometry x="90" y="312.9142857142857" width="60" height="42.285714285714285" as="geometry" />
        </mxCell>
        <mxCell id="j6AXFMzYux9oAnsxbU0D-88" value="7" style="strokeWidth=1;shadow=0;dashed=0;align=center;html=1;shape=mxgraph.mockup.forms.rrect;rSize=0;strokeColor=#999999;fontColor=#999999;fillColor=#ddeeff;fontSize=15;" vertex="1" parent="j6AXFMzYux9oAnsxbU0D-41">
          <mxGeometry x="150" y="312.9142857142857" width="60" height="42.285714285714285" as="geometry" />
        </mxCell>
        <mxCell id="j6AXFMzYux9oAnsxbU0D-89" value="8" style="strokeWidth=1;shadow=0;dashed=0;align=center;html=1;shape=mxgraph.mockup.forms.rrect;rSize=0;strokeColor=#999999;fontColor=#999999;fillColor=#ddeeff;fontSize=15;" vertex="1" parent="j6AXFMzYux9oAnsxbU0D-41">
          <mxGeometry x="210" y="312.9142857142857" width="60" height="42.285714285714285" as="geometry" />
        </mxCell>
        <mxCell id="j6AXFMzYux9oAnsxbU0D-90" value="9" style="strokeWidth=1;shadow=0;dashed=0;align=center;html=1;shape=mxgraph.mockup.forms.rrect;rSize=0;strokeColor=#999999;fontColor=#999999;fillColor=#ddeeff;fontSize=15;" vertex="1" parent="j6AXFMzYux9oAnsxbU0D-41">
          <mxGeometry x="270" y="312.9142857142857" width="60" height="42.285714285714285" as="geometry" />
        </mxCell>
        <mxCell id="j6AXFMzYux9oAnsxbU0D-91" value="10" style="strokeWidth=1;shadow=0;dashed=0;align=center;html=1;shape=mxgraph.mockup.forms.rrect;rSize=0;strokeColor=#999999;fontColor=#999999;fillColor=#ddeeff;fontSize=15;" vertex="1" parent="j6AXFMzYux9oAnsxbU0D-41">
          <mxGeometry x="330" y="312.9142857142857" width="60" height="42.285714285714285" as="geometry" />
        </mxCell>
        <mxCell id="j6AXFMzYux9oAnsxbU0D-92" value="11" style="strokeWidth=1;shadow=0;dashed=0;align=center;html=1;shape=mxgraph.mockup.forms.rrect;rSize=0;strokeColor=#999999;fontColor=#999999;fillColor=#ddeeff;fontSize=15;" vertex="1" parent="j6AXFMzYux9oAnsxbU0D-41">
          <mxGeometry x="390" y="312.9142857142857" width="60" height="42.285714285714285" as="geometry" />
        </mxCell>
        <mxCell id="j6AXFMzYux9oAnsxbU0D-93" value="24" style="strokeWidth=1;shadow=0;dashed=0;align=center;html=1;shape=mxgraph.mockup.forms.rrect;rSize=0;strokeColor=#ff0000;fontColor=#ffffff;strokeWidth=2;fillColor=#008cff;fontSize=15;" vertex="1" parent="j6AXFMzYux9oAnsxbU0D-41">
          <mxGeometry x="150" y="228.3428571428571" width="60" height="42.285714285714285" as="geometry" />
        </mxCell>
        <mxCell id="j6AXFMzYux9oAnsxbU0D-94" value="&lt;b&gt;les Activites de l&#39;annee&amp;nbsp;&amp;nbsp;&lt;/b&gt;" style="text;html=1;strokeColor=none;fillColor=none;align=center;verticalAlign=middle;whiteSpace=wrap;rounded=0;fontSize=15;fontColor=#0000FF;" vertex="1" parent="1">
          <mxGeometry x="250" y="660" width="230" height="30" as="geometry" />
        </mxCell>
        <mxCell id="j6AXFMzYux9oAnsxbU0D-104" value="La liste des membres" style="text;strokeColor=none;fillColor=none;html=1;fontSize=24;fontStyle=1;verticalAlign=middle;align=center;fontColor=#0000CC;" vertex="1" parent="1">
          <mxGeometry x="280" y="1160" width="240" height="40" as="geometry" />
        </mxCell>
        <mxCell id="j6AXFMzYux9oAnsxbU0D-111" value="Last Name and first name" style="fillColor=none;strokeColor=none;html=1;fontSize=11;fontStyle=0;align=left;fontColor=#596780;fontStyle=1;fontSize=11" vertex="1" parent="1">
          <mxGeometry x="160" y="1240" width="240" height="20" as="geometry" />
        </mxCell>
        <mxCell id="j6AXFMzYux9oAnsxbU0D-112" value="..." style="rounded=1;arcSize=9;fillColor=#F7F8F9;align=left;spacingLeft=5;strokeColor=#DEE1E6;html=1;strokeWidth=2;fontSize=12;fontColor=#0000CC;" vertex="1" parent="1">
          <mxGeometry x="160" y="1280" width="200" height="33" as="geometry" />
        </mxCell>
        <mxCell id="j6AXFMzYux9oAnsxbU0D-113" value="status" style="fillColor=none;strokeColor=none;html=1;fontSize=11;fontStyle=0;align=left;fontColor=#596780;fontStyle=1;fontSize=11" vertex="1" parent="1">
          <mxGeometry x="440" y="1240" width="240" height="20" as="geometry" />
        </mxCell>
        <mxCell id="j6AXFMzYux9oAnsxbU0D-114" value="Vice President" style="rounded=1;arcSize=9;fillColor=#F7F8F9;align=left;spacingLeft=5;strokeColor=#DEE1E6;html=1;strokeWidth=2;fontSize=12;fontColor=#0000CC;" vertex="1" parent="1">
          <mxGeometry x="440" y="1280" width="240" height="33" as="geometry" />
        </mxCell>
        <mxCell id="j6AXFMzYux9oAnsxbU0D-115" value="..." style="rounded=1;arcSize=9;fillColor=#F7F8F9;align=left;spacingLeft=5;strokeColor=#DEE1E6;html=1;strokeWidth=2;fontSize=12;fontColor=#0000CC;" vertex="1" parent="1">
          <mxGeometry x="160" y="1330" width="200" height="33" as="geometry" />
        </mxCell>
        <mxCell id="j6AXFMzYux9oAnsxbU0D-116" value="treasury" style="rounded=1;arcSize=9;fillColor=#F7F8F9;align=left;spacingLeft=5;strokeColor=#DEE1E6;html=1;strokeWidth=2;fontSize=12;fontColor=#0000CC;" vertex="1" parent="1">
          <mxGeometry x="440" y="1330" width="240" height="33" as="geometry" />
        </mxCell>
        <mxCell id="j6AXFMzYux9oAnsxbU0D-117" value="..." style="rounded=1;arcSize=9;fillColor=#F7F8F9;align=left;spacingLeft=5;strokeColor=#DEE1E6;html=1;strokeWidth=2;fontSize=12;fontColor=#0000CC;" vertex="1" parent="1">
          <mxGeometry x="160" y="1370" width="200" height="33" as="geometry" />
        </mxCell>
        <mxCell id="j6AXFMzYux9oAnsxbU0D-118" value="Secretary General" style="rounded=1;arcSize=9;fillColor=#F7F8F9;align=left;spacingLeft=5;strokeColor=#DEE1E6;html=1;strokeWidth=2;fontSize=12;fontColor=#0000CC;" vertex="1" parent="1">
          <mxGeometry x="442" y="1370" width="238" height="33" as="geometry" />
        </mxCell>
        <mxCell id="j6AXFMzYux9oAnsxbU0D-119" value="..." style="rounded=1;arcSize=9;fillColor=#F7F8F9;align=left;spacingLeft=5;strokeColor=#DEE1E6;html=1;strokeWidth=2;fontSize=12;fontColor=#0000CC;" vertex="1" parent="1">
          <mxGeometry x="160" y="1410" width="200" height="33" as="geometry" />
        </mxCell>
        <mxCell id="j6AXFMzYux9oAnsxbU0D-120" value="member" style="rounded=1;arcSize=9;fillColor=#F7F8F9;align=left;spacingLeft=5;strokeColor=#DEE1E6;html=1;strokeWidth=2;fontSize=12;fontColor=#0000CC;" vertex="1" parent="1">
          <mxGeometry x="442" y="1410" width="238" height="33" as="geometry" />
        </mxCell>
        <mxCell id="j6AXFMzYux9oAnsxbU0D-121" value="" style="image;html=1;image=img/lib/clip_art/general/Star_128x128.png;fontSize=15;fontColor=#0000CC;" vertex="1" parent="1">
          <mxGeometry x="680" y="1279.5" width="40" height="33.5" as="geometry" />
        </mxCell>
        <mxCell id="j6AXFMzYux9oAnsxbU0D-124" value="" style="image;html=1;image=img/lib/clip_art/general/Star_128x128.png;fontSize=15;fontColor=#0000CC;" vertex="1" parent="1">
          <mxGeometry x="680" y="1329.5" width="40" height="33.5" as="geometry" />
        </mxCell>
        <mxCell id="j6AXFMzYux9oAnsxbU0D-125" value="" style="image;html=1;image=img/lib/clip_art/general/Star_128x128.png;fontSize=15;fontColor=#0000CC;" vertex="1" parent="1">
          <mxGeometry x="680" y="1370" width="40" height="33.5" as="geometry" />
        </mxCell>
        <mxCell id="j6AXFMzYux9oAnsxbU0D-126" value="delete a member" style="text;whiteSpace=wrap;html=1;fontSize=24;fontColor=#0000CC;fontStyle=1" vertex="1" parent="1">
          <mxGeometry x="280" y="1490" width="220" height="30" as="geometry" />
        </mxCell>
        <mxCell id="j6AXFMzYux9oAnsxbU0D-140" value="Last Name and first name" style="fillColor=none;strokeColor=none;html=1;fontSize=11;fontStyle=0;align=left;fontColor=#596780;fontStyle=1;fontSize=11" vertex="1" parent="1">
          <mxGeometry x="160" y="1560" width="240" height="20" as="geometry" />
        </mxCell>
        <mxCell id="j6AXFMzYux9oAnsxbU0D-141" value="status" style="fillColor=none;strokeColor=none;html=1;fontSize=11;fontStyle=0;align=left;fontColor=#596780;fontStyle=1;fontSize=11" vertex="1" parent="1">
          <mxGeometry x="440" y="1570" width="240" height="20" as="geometry" />
        </mxCell>
        <mxCell id="j6AXFMzYux9oAnsxbU0D-142" value="..." style="rounded=1;arcSize=9;fillColor=#F7F8F9;align=left;spacingLeft=5;strokeColor=#DEE1E6;html=1;strokeWidth=2;fontSize=12;fontColor=#0000CC;" vertex="1" parent="1">
          <mxGeometry x="160" y="1600" width="200" height="33" as="geometry" />
        </mxCell>
        <mxCell id="j6AXFMzYux9oAnsxbU0D-143" value="..." style="rounded=1;arcSize=9;fillColor=#F7F8F9;align=left;spacingLeft=5;strokeColor=#DEE1E6;html=1;strokeWidth=2;fontSize=12;fontColor=#0000CC;" vertex="1" parent="1">
          <mxGeometry x="160" y="1650" width="200" height="33" as="geometry" />
        </mxCell>
        <mxCell id="j6AXFMzYux9oAnsxbU0D-144" value="..." style="rounded=1;arcSize=9;fillColor=#F7F8F9;align=left;spacingLeft=5;strokeColor=#DEE1E6;html=1;strokeWidth=2;fontSize=12;fontColor=#0000CC;" vertex="1" parent="1">
          <mxGeometry x="160" y="1700" width="200" height="33" as="geometry" />
        </mxCell>
        <mxCell id="j6AXFMzYux9oAnsxbU0D-145" value="Vice President" style="rounded=1;arcSize=9;fillColor=#F7F8F9;align=left;spacingLeft=5;strokeColor=#DEE1E6;html=1;strokeWidth=2;fontSize=12;fontColor=#0000CC;" vertex="1" parent="1">
          <mxGeometry x="440" y="1600" width="240" height="33" as="geometry" />
        </mxCell>
        <mxCell id="j6AXFMzYux9oAnsxbU0D-147" value="treasury" style="rounded=1;arcSize=9;fillColor=#F7F8F9;align=left;spacingLeft=5;strokeColor=#DEE1E6;html=1;strokeWidth=2;fontSize=12;fontColor=#0000CC;" vertex="1" parent="1">
          <mxGeometry x="440" y="1650" width="240" height="33" as="geometry" />
        </mxCell>
        <mxCell id="j6AXFMzYux9oAnsxbU0D-148" value="member" style="rounded=1;arcSize=9;fillColor=#F7F8F9;align=left;spacingLeft=5;strokeColor=#DEE1E6;html=1;strokeWidth=2;fontSize=12;fontColor=#0000CC;" vertex="1" parent="1">
          <mxGeometry x="441" y="1700" width="240" height="33" as="geometry" />
        </mxCell>
        <mxCell id="j6AXFMzYux9oAnsxbU0D-151" value="" style="html=1;verticalLabelPosition=bottom;align=center;labelBackgroundColor=#ffffff;verticalAlign=top;strokeWidth=2;strokeColor=#0080F0;shadow=0;dashed=0;shape=mxgraph.ios7.icons.delete;fontSize=24;fontColor=#0000CC;" vertex="1" parent="1">
          <mxGeometry x="700" y="1600" width="30" height="30" as="geometry" />
        </mxCell>
        <mxCell id="j6AXFMzYux9oAnsxbU0D-152" value="" style="html=1;verticalLabelPosition=bottom;align=center;labelBackgroundColor=#ffffff;verticalAlign=top;strokeWidth=2;strokeColor=#0080F0;shadow=0;dashed=0;shape=mxgraph.ios7.icons.delete;fontSize=24;fontColor=#0000CC;" vertex="1" parent="1">
          <mxGeometry x="700" y="1650" width="30" height="30" as="geometry" />
        </mxCell>
        <mxCell id="j6AXFMzYux9oAnsxbU0D-153" value="" style="html=1;verticalLabelPosition=bottom;align=center;labelBackgroundColor=#ffffff;verticalAlign=top;strokeWidth=2;strokeColor=#0080F0;shadow=0;dashed=0;shape=mxgraph.ios7.icons.delete;fontSize=24;fontColor=#0000CC;" vertex="1" parent="1">
          <mxGeometry x="700" y="1700" width="30" height="30" as="geometry" />
        </mxCell>
        <mxCell id="j6AXFMzYux9oAnsxbU0D-165" value="" style="image;html=1;image=img/lib/clip_art/general/Star_128x128.png;fontSize=16;fontColor=#000000;strokeWidth=16;" vertex="1" parent="1">
          <mxGeometry x="630" y="233.5" width="60" height="46.5" as="geometry" />
        </mxCell>
        <mxCell id="j6AXFMzYux9oAnsxbU0D-166" value="" style="image;html=1;image=img/lib/clip_art/general/Star_128x128.png;fontSize=16;fontColor=#000000;strokeWidth=16;" vertex="1" parent="1">
          <mxGeometry x="700" y="236.75" width="60" height="43.25" as="geometry" />
        </mxCell>
      </root>
    </mxGraphModel>
  </diagram>
</mxfile>
